<svg xmlns="http://www.w3.org/2000/svg" xmlns:xlink="http://www.w3.org/1999/xlink" xmlns:serif="http://www.serif.com/" width="100%" height="100%" viewBox="0 0 8003 9338" xml:space="preserve" style="fill-rule:evenodd;clip-rule:evenodd;stroke-linejoin:round;stroke-miterlimit:2;"><path d="M6067.65,3577.33l-6.929,-0.8c-16.492,-3.8 -26.788,-20.258 -22.988,-36.754l298.979,-1298.02c3.8,-16.492 20.171,-26.854 36.717,-22.983c16.529,3.8 26.825,20.275 23.004,36.77l-298.958,1298.01c-3.246,14.2 -15.888,23.783 -29.829,23.783l0.004,-0Z" style="fill:#5593ce;fill-rule:nonzero;"></path><path d="M5670.19,3485.31l-6.93,-0.8c-16.491,-3.804 -26.787,-20.262 -23,-36.754l298.992,-1298c3.8,-16.475 20.138,-26.804 36.754,-22.983c16.525,3.8 26.788,20.275 22.984,36.75l-298.938,1298c-3.283,14.183 -15.921,23.787 -29.863,23.787Z" style="fill:#5593ce;fill-rule:nonzero;"></path><path d="M5272.73,3393.97l-6.908,-0.767c-16.496,-3.8 -26.808,-20.258 -23.004,-36.754l298.975,-1298.04c3.8,-16.492 20.158,-26.75 36.787,-22.984c16.496,3.8 26.809,20.259 22.988,36.75l-298.975,1298.04c-3.267,14.183 -15.904,23.75 -29.863,23.75Z" style="fill:#5593ce;fill-rule:nonzero;"></path><path d="M5499.9,2751.88l-160.017,-37.521l80.938,-345.292l160.016,37.48l-80.937,345.333Z" style="fill:#5593ce;fill-rule:nonzero;"></path><path d="M5468.94,2778.87c-35.505,10.708 -86.146,-1.129 -113.163,-26.546c-27.029,-25.35 -20.171,-54.583 15.296,-65.296c35.471,-10.712 86.146,1.163 113.179,26.529c26.979,25.346 20.137,54.6 -15.313,65.313Z" style="fill:#5593ce;fill-rule:nonzero;"></path><path d="M5616.27,2478.7l-259.288,-60.779l126.946,-541.6l259.304,60.8l-126.962,541.579Z" style="fill:#5593ce;fill-rule:nonzero;"></path><path d="M5407.4,2425.5l-27.396,116.875c41.925,32.433 108.021,47.937 160.033,37.483l27.38,-116.821c-41.926,-32.5 -108.021,-47.987 -160.017,-37.537Z" style="fill:#386dab;fill-rule:nonzero;"></path><path d="M5565.77,2522.31c-57.479,17.379 -139.546,-1.875 -183.333,-42.987c-43.8,-41.113 -32.671,-88.509 24.812,-105.85c57.5,-17.363 139.563,1.875 183.35,42.95c43.8,41.112 32.671,88.525 -24.829,105.887Z" style="fill:#5593ce;fill-rule:nonzero;"></path><path d="M5404.65,2696.75c-3.975,16.962 -17.5,21.008 -30.158,9.117c-12.655,-11.892 -19.721,-35.28 -15.763,-52.171c3.992,-16.929 17.483,-21.025 30.138,-9.117c12.658,11.879 19.741,35.263 15.783,52.171Z" style="fill:#d4ebfa;fill-rule:nonzero;"></path><path d="M5868.48,2971.3l-160.037,-37.517l80.975,-345.296l159.979,37.484l-80.917,345.329Z" style="fill:#5593ce;fill-rule:nonzero;"></path><path d="M5836.81,2998.33c-35.467,10.692 -86.146,-1.166 -113.142,-26.529c-27.013,-25.4 -20.171,-54.654 15.329,-65.346c35.471,-10.696 86.096,1.163 113.108,26.509c27.034,25.383 20.175,54.637 -15.296,65.366Z" style="fill:#5593ce;fill-rule:nonzero;"></path><path d="M5984.85,2698.09l-259.325,-60.762l126.946,-541.579l259.288,60.762l-126.909,541.579Z" style="fill:#5593ce;fill-rule:nonzero;"></path><path d="M5775.94,2644.93l-27.396,116.858c41.962,32.463 108.054,47.934 160.016,37.517l27.396,-116.858c-41.891,-32.467 -108.054,-47.95 -160.016,-37.517Z" style="fill:#386dab;fill-rule:nonzero;"></path><path d="M5934.35,2741.75c-57.483,17.362 -139.583,-1.892 -183.354,-43.004c-43.783,-41.109 -32.671,-88.471 24.796,-105.85c57.479,-17.342 139.583,1.912 183.383,43.004c43.75,41.096 32.658,88.471 -24.825,105.85Z" style="fill:#5593ce;fill-rule:nonzero;"></path><path d="M5773.19,2916.21c-3.942,16.909 -17.434,20.992 -30.088,9.096c-12.692,-11.908 -19.775,-35.241 -15.8,-52.204c3.958,-16.908 17.483,-21.004 30.142,-9.096c12.687,11.929 19.737,35.242 15.745,52.204Z" style="fill:#d4ebfa;fill-rule:nonzero;"></path><path d="M6240.98,3188.8l-160.021,-37.533l80.959,-345.313l159.979,37.517l-80.921,345.329l0.004,-0Z" style="fill:#5593ce;fill-rule:nonzero;"></path><path d="M6209.98,3216.44c-35.471,10.73 -86.112,-1.162 -113.162,-26.508c-26.996,-25.383 -20.138,-54.637 15.333,-65.346c35.467,-10.712 86.108,1.142 113.121,26.525c27.033,25.384 20.192,54.638 -15.292,65.329Z" style="fill:#5593ce;fill-rule:nonzero;"></path><path d="M6357.35,2915.59l-259.308,-60.779l126.929,-541.6l259.288,60.8l-126.909,541.579Z" style="fill:#5593ce;fill-rule:nonzero;"></path><path d="M6148.44,2863.05l-27.38,116.821c41.946,32.5 108.038,47.971 160,37.521l27.363,-116.825c-41.892,-32.467 -107.988,-47.971 -159.983,-37.517Z" style="fill:#386dab;fill-rule:nonzero;"></path><path d="M6306.85,2959.86c-57.483,17.379 -139.55,-1.875 -183.35,-42.983c-43.771,-41.113 -32.675,-88.492 24.809,-105.854c57.462,-17.379 139.566,1.875 183.366,42.987c43.784,41.113 32.659,88.509 -24.825,105.85Z" style="fill:#5593ce;fill-rule:nonzero;"></path><path d="M6145.73,3134.32c-3.958,16.891 -17.483,20.971 -30.141,9.116c-12.688,-11.929 -19.738,-35.295 -15.746,-52.241c3.941,-16.892 17.433,-20.971 30.141,-9.079c12.638,11.908 19.721,35.258 15.746,52.204Z" style="fill:#d4ebfa;fill-rule:nonzero;"></path><path d="M3628.31,9298.47l-3560.33,-2055.57c-100.696,-58.163 -88.075,-159.725 28.229,-226.859l2424.32,-1399.2c116.267,-67.133 292.204,-74.458 392.9,-16.283l3560.38,2055.54c100.691,58.142 88.037,159.725 -28.213,226.875l-2424.34,1399.18c-116.283,67.171 -292.204,74.462 -392.933,16.321l-0.017,-0Z" style="fill:#b3d3eb;fill-rule:nonzero;"></path><path d="M7307.23,4014.34l-3560.33,-2055.54c-41.354,-23.925 -83.35,-27.604 -120.658,-14.808l0.241,-0.384l-6.458,2.467l-1.596,0.571l-128.662,49.237l115.483,56.53l-1.683,6.283l-579.913,2639.81c-29.029,132.084 29.113,286.338 129.825,344.463l3474.65,2006.15l-12.345,147.241l140.645,-54.479c47.238,-22.137 85.034,-72.104 100.692,-143.25l579.913,-2639.77c29.029,-132.121 -29.096,-286.354 -129.809,-344.496l0,-0.02Z" style="fill:#1f3e79;fill-rule:nonzero;"></path><path d="M7307.65,4014.34l-3560.33,-2055.54c-41.355,-23.925 -83.35,-27.604 -120.659,-14.808l0.263,-0.384l-6.479,2.467l-1.596,0.571l-128.663,49.237l115.488,56.53l-1.688,6.283l-382.187,1739.78l1742.03,1357.22l2456.32,-999.479c-23.646,-61.196 -62.85,-113.209 -112.483,-141.875l-0.021,-0l0.004,-0Z" style="fill:#386dab;fill-rule:nonzero;"></path><path d="M7173.23,4419.97l271.009,-115.4c4.983,-104.946 -38.455,-213.4 -109.792,-271.405l-428.992,180.488l267.775,206.317Z" style="fill:#26508a;fill-rule:nonzero;"></path><path d="M6492.44,7182.63l-3560.4,-2055.57c-100.691,-58.125 -158.816,-212.341 -129.77,-344.458l579.896,-2639.78c29.024,-132.121 134.2,-192.083 234.912,-133.908l3560.36,2055.54c100.695,58.163 158.82,212.379 129.791,344.496l-579.896,2639.78c-29.041,132.083 -134.216,192.05 -234.912,133.908l0.016,0Z" style="fill:#d4ebfa;fill-rule:nonzero;"></path><path d="M6415.31,6985.84l-3348.42,-1932.28c-92.167,-53.23 -145.363,-194.359 -118.784,-315.263l530.642,-2415.59c26.579,-120.905 122.796,-175.784 214.983,-122.538l3348.44,1932.26c92.154,53.213 145.329,194.359 118.783,315.242l-530.692,2415.59c-26.583,120.904 -122.795,175.746 -214.95,122.554l0,0.017Z" style="fill:#fff;fill-rule:nonzero;"></path><path d="M6415.31,6985.84l-3348.42,-1932.28c-92.167,-53.23 -145.363,-194.359 -118.784,-315.263l530.642,-2415.59c26.579,-120.905 122.796,-175.784 214.983,-122.538l3348.44,1932.26c92.154,53.213 145.329,194.359 118.783,315.242l-530.692,2415.59c-26.583,120.904 -122.795,175.746 -214.95,122.554l0,0.017Z" style="fill:#fff;fill-rule:nonzero;"></path><path d="M6541.6,7272.3l-486.666,-64.238l-3141.63,-1813.8c-100.695,-58.158 -276.633,-50.866 -392.9,16.304l-2226.11,1284.79l-294.288,-38.871l0,166.946l0.28,0.033c-1.93,38.592 20.05,75.713 67.566,103.175l3560.35,2055.54c100.729,58.158 276.646,50.85 392.934,-16.271l2424.34,-1399.22c65.4,-37.813 97.971,-86.459 96.129,-132.171l0,-162.221Z" style="fill:#1f3e79;fill-rule:nonzero;"></path><path d="M4181.1,6125.76l-223.196,-128.871l-2453.91,0l-1209.7,698.021l-294.288,-38.875l0,166.946l0.279,0.033c-1.929,38.596 20.05,75.713 67.567,103.18l3560.33,2055.54c53.209,30.713 127.463,43.004 202.813,38.021l350.104,-2893.99Z" style="fill:#386dab;fill-rule:nonzero;"></path><path d="M130.592,6673.72l-130.592,-17.255l0,166.963l0.279,0.017c-1.929,38.591 20.05,75.712 67.567,103.191l62.746,36.2l-0,-289.116Z" style="fill:#5593ce;fill-rule:nonzero;"></path><path d="M3663.98,8998.88c95.488,36.213 231.996,28.334 333.888,-20.679l-0,-372.462l-333.888,-0l0,393.141Z" style="fill:#26508a;fill-rule:nonzero;"></path><path d="M3628.31,8814.97l-3560.33,-2055.57c-100.696,-58.163 -88.075,-159.759 28.229,-226.896l2424.32,-1399.2c116.267,-67.133 292.204,-74.408 392.9,-16.283l3560.38,2055.57c100.691,58.125 88.037,159.725 -28.213,226.859l-2424.34,1399.24c-116.283,67.1 -292.204,74.409 -392.933,16.284l-0.017,-0Z" style="fill:#d4ebfa;fill-rule:nonzero;"></path><path d="M6445.4,7338.72l-2424.36,1399.2c-116.267,67.15 -292.188,74.441 -392.934,16.316l-3560.33,-2055.61c-33.004,-19.025 -53.612,-42.808 -62.587,-68.437c-15.784,47.641 4.287,95.8 62.587,129.445l3560.33,2055.57c100.746,58.125 276.667,50.834 392.934,-16.27l2424.36,-1399.25c78.158,-45.125 109.217,-105.767 90.8,-158.371c-11.458,34.708 -41.842,69.1 -90.8,97.396Z" style="fill:#fff;fill-rule:nonzero;"></path><path d="M1582.29,6078.93l-161.075,-93.004c-12.917,-7.446 -11.288,-20.5 3.646,-29.129l190.154,-109.775c14.912,-8.646 37.516,-9.584 50.454,-2.1l161.092,93.004c12.933,7.479 11.304,20.5 -3.63,29.146l-190.154,109.775c-14.912,8.612 -37.521,9.533 -50.487,2.083Z" style="fill:#1f3e79;fill-rule:nonzero;"></path><path d="M1830.7,6222.8l-161.129,-93.021c-12.95,-7.479 -11.284,-20.521 3.612,-29.129l190.154,-109.775c14.929,-8.613 37.554,-9.567 50.45,-2.083l161.096,92.966c12.95,7.484 11.321,20.542 -3.612,29.167l-190.154,109.775c-14.934,8.612 -37.517,9.567 -50.417,2.1Z" style="fill:#1f3e79;fill-rule:nonzero;"></path><path d="M2079.69,6366.01l-161.113,-92.987c-12.933,-7.463 -11.283,-20.538 3.613,-29.146l190.154,-109.775c14.966,-8.646 37.554,-9.567 50.487,-2.083l161.096,93.004c12.896,7.479 11.3,20.483 -3.646,29.129l-190.158,109.808c-14.929,8.613 -37.483,9.534 -50.433,2.05Z" style="fill:#1f3e79;fill-rule:nonzero;"></path><path d="M2423.9,6247.88l-161.059,-93.004c-12.933,-7.446 -11.354,-20.504 3.613,-29.133l159.6,-92.134c14.913,-8.645 37.517,-9.566 50.45,-2.116l161.096,93.037c12.933,7.446 11.317,20.504 -3.613,29.113l-159.616,92.154c-14.929,8.612 -37.538,9.567 -50.471,2.083Z" style="fill:#1f3e79;fill-rule:nonzero;"></path><path d="M2672.23,6391.09l-161.096,-93.038c-12.933,-7.433 -11.304,-20.504 3.63,-29.117l159.583,-92.15c14.929,-8.612 37.55,-9.566 50.466,-2.083l161.096,93.004c12.934,7.463 11.3,20.521 -3.629,29.129l-159.617,92.155c-14.933,8.612 -37.483,9.566 -50.437,2.1l0.004,-0Z" style="fill:#1f3e79;fill-rule:nonzero;"></path><path d="M2921.27,6534.97l-161.092,-93.021c-12.937,-7.446 -11.321,-20.5 3.609,-29.113l159.583,-92.154c14.967,-8.646 37.554,-9.583 50.504,-2.117l161.096,93.021c12.896,7.467 11.3,20.538 -3.667,29.15l-159.616,92.171c-14.93,8.625 -37.484,9.546 -50.417,2.063Z" style="fill:#1f3e79;fill-rule:nonzero;"></path><path d="M3170.23,6678.88l-161.075,-93.037c-12.933,-7.45 -11.321,-20.504 3.609,-29.117l159.604,-92.187c14.946,-8.613 37.533,-9.53 50.466,-2.084l161.096,93.004c12.934,7.484 11.317,20.555 -3.612,29.134l-159.617,92.166c-14.967,8.646 -37.521,9.567 -50.471,2.121Z" style="fill:#1f3e79;fill-rule:nonzero;"></path><path d="M3418.56,6822.05l-161.092,-92.983c-12.9,-7.484 -11.304,-20.542 3.646,-29.15l159.583,-92.138c14.929,-8.629 37.533,-9.583 50.467,-2.067l161.095,93.005c12.934,7.412 11.301,20.487 -3.629,29.1l-159.616,92.15c-14.934,8.629 -37.521,9.55 -50.454,2.083Z" style="fill:#1f3e79;fill-rule:nonzero;"></path><path d="M3667.56,6965.97l-161.096,-93.021c-12.934,-7.484 -11.317,-20.504 3.612,-29.15l159.6,-92.154c14.929,-8.609 37.554,-9.53 50.45,-2.084l161.096,93.021c12.933,7.433 11.321,20.504 -3.629,29.15l-159.6,92.117c-14.95,8.646 -37.534,9.583 -50.434,2.121Z" style="fill:#1f3e79;fill-rule:nonzero;"></path><path d="M3916.56,7109.13l-161.092,-93.004c-12.938,-7.462 -11.321,-20.521 3.608,-29.129l159.583,-92.154c14.95,-8.613 37.571,-9.567 50.505,-2.084l161.096,93.021c12.895,7.45 11.299,20.504 -3.667,29.117l-159.617,92.15c-14.929,8.612 -37.483,9.533 -50.416,2.083Z" style="fill:#1f3e79;fill-rule:nonzero;"></path><path d="M4164.9,7253.05l-161.092,-93.004c-12.937,-7.484 -11.304,-20.504 3.609,-29.15l159.6,-92.154c14.949,-8.646 37.554,-9.563 50.487,-2.08l161.092,92.984c12.937,7.5 11.321,20.537 -3.609,29.183l-159.62,92.121c-14.963,8.646 -37.534,9.562 -50.467,2.1Z" style="fill:#1f3e79;fill-rule:nonzero;"></path><path d="M4413.85,7396.88l-161.091,-92.987c-12.901,-7.467 -11.305,-20.504 3.645,-29.113l159.6,-92.191c14.929,-8.609 37.517,-9.53 50.45,-2.08l161.096,93c12.934,7.484 11.3,20.521 -3.612,29.134l-159.638,92.187c-14.946,8.613 -37.516,9.55 -50.45,2.05Z" style="fill:#1f3e79;fill-rule:nonzero;"></path><path d="M4662.9,7540.13l-161.096,-92.971c-12.933,-7.479 -11.333,-20.537 3.613,-29.166l159.6,-92.15c14.912,-8.646 37.516,-9.55 50.449,-2.1l161.096,93.037c12.934,7.446 11.321,20.467 -3.612,29.113l-159.633,92.154c-14.896,8.612 -37.517,9.567 -50.417,2.083Z" style="fill:#1f3e79;fill-rule:nonzero;"></path><path d="M2790.48,6179.55l-161.058,-93.004c-12.954,-7.446 -11.358,-20.5 3.608,-29.129l159.621,-92.171c14.929,-8.613 37.5,-9.567 50.433,-2.05l161.092,92.971c12.933,7.479 11.304,20.537 -3.608,29.145l-159.605,92.155c-14.929,8.612 -37.549,9.533 -50.483,2.083Z" style="fill:#386dab;fill-rule:nonzero;"></path><path d="M2537.56,6033.68l-161.096,-92.971c-12.934,-7.483 -11.317,-20.554 3.629,-29.15l159.6,-92.15c14.967,-8.629 37.533,-9.55 50.471,-2.104l161.091,93.025c12.934,7.446 11.305,20.5 -3.629,29.112l-159.583,92.155c-14.963,8.645 -37.55,9.566 -50.483,2.083Z" style="fill:#386dab;fill-rule:nonzero;"></path><path d="M2285.19,5888.09l-346.909,-200.33c-12.954,-7.483 -11.321,-20.487 3.609,-29.133l159.583,-92.167c14.933,-8.629 37.554,-9.55 50.471,-2.087l346.979,200.333c12.933,7.446 11.283,20.5 -3.646,29.113l-159.6,92.154c-14.95,8.646 -37.554,9.567 -50.487,2.117Z" style="fill:#1f3e79;fill-rule:nonzero;"></path><path d="M2461.6,5710.38l-281.562,-162.604c-12.934,-7.446 -11.3,-20.5 3.629,-29.112l159.621,-92.155c14.946,-8.608 37.516,-9.566 50.45,-2.083l281.545,162.538c12.95,7.479 11.338,20.5 -3.629,29.112l-159.583,92.188c-14.929,8.645 -37.533,9.566 -50.471,2.116Z" style="fill:#1f3e79;fill-rule:nonzero;"></path><path d="M3038.85,6323.47l-161.096,-93.005c-12.933,-7.516 -11.3,-20.52 3.63,-29.166l159.616,-92.154c14.934,-8.646 37.521,-9.55 50.421,-2.1l161.092,93.004c12.933,7.483 11.337,20.504 -3.613,29.15l-159.6,92.15c-14.929,8.646 -37.516,9.566 -50.45,2.121Z" style="fill:#386dab;fill-rule:nonzero;"></path><path d="M3287.81,6466.63l-161.075,-92.966c-12.955,-7.484 -11.321,-20.559 3.612,-29.167l159.617,-92.154c14.962,-8.613 37.516,-9.534 50.466,-2.084l161.08,93.005c12.916,7.462 11.316,20.52 -3.646,29.129l-159.584,92.154c-14.933,8.612 -37.537,9.567 -50.47,2.083Z" style="fill:#1f3e79;fill-rule:nonzero;"></path><path d="M3536.81,6610.55l-161.096,-93.038c-12.934,-7.45 -11.305,-20.504 3.629,-29.15l159.617,-92.12c14.949,-8.646 37.516,-9.563 50.454,-2.1l161.091,93.004c12.934,7.483 11.321,20.504 -3.612,29.15l-159.6,92.154c-14.963,8.608 -37.55,9.562 -50.483,2.1Z" style="fill:#1f3e79;fill-rule:nonzero;"></path><path d="M3785.15,6754.38l-161.096,-92.987c-12.917,-7.484 -11.321,-20.538 3.646,-29.15l159.617,-92.154c14.933,-8.575 37.483,-9.563 50.437,-2.084l161.075,93.004c12.95,7.467 11.321,20.521 -3.613,29.134l-159.583,92.154c-14.929,8.608 -37.55,9.546 -50.483,2.083Z" style="fill:#1f3e79;fill-rule:nonzero;"></path><path d="M4034.15,6897.63l-161.079,-93.004c-12.934,-7.483 -11.317,-20.504 3.612,-29.133l159.621,-92.167c14.929,-8.65 37.517,-9.567 50.433,-2.087l161.092,93.004c12.933,7.483 11.304,20.504 -3.629,29.15l-159.584,92.154c-14.929,8.608 -37.549,9.529 -50.466,2.083Z" style="fill:#1f3e79;fill-rule:nonzero;"></path><path d="M4283.15,7041.51l-161.092,-93.004c-12.933,-7.483 -11.321,-20.521 3.613,-29.112l159.616,-92.188c14.93,-8.612 37.517,-9.533 50.467,-2.083l161.079,93c12.917,7.483 11.317,20.504 -3.646,29.116l-159.583,92.188c-14.933,8.612 -37.521,9.567 -50.454,2.083Z" style="fill:#1f3e79;fill-rule:nonzero;"></path><path d="M4531.48,7185.38l-161.091,-93.021c-12.934,-7.445 -11.321,-20.504 3.608,-29.112l159.621,-92.154c14.966,-8.613 37.533,-9.567 50.466,-2.117l161.096,93.038c12.934,7.445 11.3,20.504 -3.612,29.129l-159.6,92.137c-14.946,8.629 -37.55,9.567 -50.488,2.1Z" style="fill:#1f3e79;fill-rule:nonzero;"></path><path d="M4780.48,7328.59l-161.096,-93.021c-12.9,-7.446 -11.3,-20.521 3.646,-29.134l159.617,-92.15c14.933,-8.595 37.5,-9.55 50.437,-2.083l161.092,93.021c12.95,7.446 11.304,20.504 -3.629,29.112l-159.583,92.155c-14.963,8.645 -37.55,9.566 -50.484,2.1Z" style="fill:#1f3e79;fill-rule:nonzero;"></path><path d="M5029.48,7472.47l-161.096,-93.005c-12.933,-7.445 -11.316,-20.52 3.613,-29.129l159.621,-92.154c14.929,-8.596 37.5,-9.583 50.433,-2.083l161.092,92.987c12.971,7.479 11.321,20.538 -3.609,29.146l-159.604,92.154c-14.912,8.613 -37.55,9.534 -50.45,2.084Z" style="fill:#1f3e79;fill-rule:nonzero;"></path><path d="M5471.48,7727.55l-351.475,-202.9c-12.916,-7.483 -11.321,-20.538 3.646,-29.15l159.6,-92.15c14.95,-8.613 37.538,-9.533 50.471,-2.083l351.492,202.933c12.933,7.446 11.304,20.504 -3.613,29.133l-159.633,92.134c-14.95,8.629 -37.554,9.566 -50.488,2.083Z" style="fill:#1f3e79;fill-rule:nonzero;"></path><path d="M5956.06,7448.26l-296.684,-171.287c-12.9,-7.446 -11.304,-20.504 3.663,-29.129l159.616,-92.138c14.934,-8.629 37.484,-9.567 50.417,-2.1l296.688,171.283c12.933,7.467 11.316,20.505 -3.613,29.117l-159.583,92.188c-14.967,8.608 -37.554,9.529 -50.505,2.066Z" style="fill:#1f3e79;fill-rule:nonzero;"></path><path d="M3474.44,6295.18l-161.096,-93.004c-12.967,-7.484 -11.321,-20.504 3.629,-29.15l159.583,-92.117c14.929,-8.646 37.55,-9.6 50.45,-2.117l161.096,92.967c12.933,7.521 11.317,20.558 -3.612,29.204l-159.617,92.1c-14.933,8.646 -37.538,9.567 -50.433,2.117Z" style="fill:#1f3e79;fill-rule:nonzero;"></path><path d="M3219.52,6148.01l-161.092,-93.004c-12.933,-7.483 -11.321,-20.504 3.609,-29.133l159.654,-92.171c14.896,-8.608 37.5,-9.567 50.433,-2.083l161.096,93.004c12.933,7.483 11.3,20.504 -3.629,29.15l-159.617,92.15c-14.933,8.612 -37.517,9.533 -50.454,2.083l-0,0.004Z" style="fill:#1f3e79;fill-rule:nonzero;"></path><path d="M2964.6,6000.84l-161.092,-93.021c-12.933,-7.467 -11.304,-20.504 3.63,-29.117l159.616,-92.171c14.93,-8.625 37.517,-9.546 50.45,-2.1l161.13,93.021c12.9,7.483 11.283,20.504 -3.663,29.117l-159.6,92.166c-14.95,8.63 -37.537,9.55 -50.471,2.105Z" style="fill:#386dab;fill-rule:nonzero;"></path><path d="M2709.69,5853.68l-161.059,-93.004c-12.933,-7.484 -11.337,-20.538 3.608,-29.167l159.638,-92.133c14.929,-8.613 37.517,-9.534 50.45,-2.084l161.096,93c12.933,7.45 11.316,20.505 -3.629,29.117l-159.617,92.188c-14.933,8.612 -37.554,9.566 -50.487,2.083Z" style="fill:#1f3e79;fill-rule:nonzero;"></path><path d="M3723.44,6439.05l-161.096,-93.004c-12.967,-7.479 -11.3,-20.5 3.629,-29.129l159.583,-92.171c14.934,-8.613 37.554,-9.529 50.488,-2.084l161.091,93.005c12.9,7.483 11.321,20.504 -3.645,29.133l-159.617,92.167c-14.929,8.612 -37.5,9.533 -50.433,2.083Z" style="fill:#1f3e79;fill-rule:nonzero;"></path><path d="M3972.4,6582.26l-161.092,-92.983c-12.954,-7.483 -11.321,-20.538 3.625,-29.188l159.588,-92.116c14.962,-8.646 37.55,-9.567 50.483,-2.117l161.096,93.004c12.933,7.484 11.3,20.521 -3.613,29.167l-159.633,92.15c-14.95,8.667 -37.521,9.567 -50.454,2.083Z" style="fill:#1f3e79;fill-rule:nonzero;"></path><path d="M4220.73,6726.09l-161.092,-93.005c-12.937,-7.412 -11.304,-20.466 3.663,-29.095l159.583,-92.171c14.93,-8.609 37.517,-9.529 50.45,-2.084l161.096,93.005c12.933,7.483 11.317,20.504 -3.612,29.15l-159.617,92.116c-14.967,8.613 -37.521,9.6 -50.471,2.084Z" style="fill:#1f3e79;fill-rule:nonzero;"></path><path d="M4469.73,6870.01l-161.096,-93.004c-12.95,-7.45 -11.304,-20.504 3.63,-29.133l159.583,-92.134c14.929,-8.645 37.517,-9.566 50.467,-2.12l161.095,93.041c12.934,7.446 11.3,20.467 -3.629,29.113l-159.616,92.154c-14.934,8.629 -37.521,9.529 -50.438,2.083l0.004,0Z" style="fill:#1f3e79;fill-rule:nonzero;"></path><path d="M4718.73,7013.26l-161.096,-93.037c-12.933,-7.45 -11.316,-20.504 3.613,-29.117l159.6,-92.171c14.912,-8.625 37.537,-9.546 50.471,-2.062l161.075,92.966c12.933,7.5 11.337,20.555 -3.63,29.167l-159.616,92.138c-14.929,8.625 -37.484,9.583 -50.417,2.116Z" style="fill:#1f3e79;fill-rule:nonzero;"></path><path d="M4967.06,7157.13l-161.096,-93.004c-12.934,-7.483 -11.3,-20.504 3.612,-29.112l159.583,-92.188c14.967,-8.612 37.571,-9.567 50.505,-2.121l161.091,93.042c12.934,7.479 11.304,20.5 -3.625,29.112l-159.621,92.188c-14.966,8.612 -37.516,9.533 -50.449,2.083Z" style="fill:#1f3e79;fill-rule:nonzero;"></path><path d="M5216.06,7300.34l-161.092,-93.005c-12.938,-7.483 -11.321,-20.504 3.646,-29.166l159.583,-92.134c14.929,-8.629 37.533,-9.55 50.467,-2.104l161.096,93.021c12.933,7.45 11.3,20.504 -3.613,29.117l-159.637,92.154c-14.963,8.646 -37.517,9.6 -50.45,2.117Z" style="fill:#1f3e79;fill-rule:nonzero;"></path><path d="M5465.02,7444.22l-161.075,-93.005c-12.933,-7.45 -11.338,-20.52 3.629,-29.112l159.6,-92.171c14.913,-8.612 37.517,-9.55 50.45,-2.083l161.096,93.021c12.933,7.445 11.3,20.5 -3.629,29.112l-159.617,92.154c-14.933,8.609 -37.521,9.567 -50.454,2.084Z" style="fill:#1f3e79;fill-rule:nonzero;"></path><path d="M5713.4,7588.13l-161.096,-93.021c-12.933,-7.483 -11.3,-20.504 3.629,-29.15l159.584,-92.154c14.929,-8.612 37.55,-9.566 50.483,-2.083l161.062,93.004c12.95,7.446 11.355,20.504 -3.612,29.15l-159.617,92.133c-14.933,8.63 -37.5,9.55 -50.433,2.117l-0,0.004Z" style="fill:#1f3e79;fill-rule:nonzero;"></path><path d="M3343.69,5939.76l-161.092,-93.021c-12.934,-7.445 -11.321,-20.5 3.612,-29.112l159.617,-92.154c14.929,-8.663 37.533,-9.584 50.467,-2.117l161.095,92.988c12.934,7.5 11.301,20.537 -3.612,29.183l-159.633,92.15c-14.934,8.612 -37.521,9.533 -50.454,2.083Z" style="fill:#1f3e79;fill-rule:nonzero;"></path><path d="M3096.02,5797.18l-161.096,-93.004c-12.95,-7.484 -11.317,-20.504 3.612,-29.15l159.617,-92.121c14.967,-8.642 37.517,-9.6 50.488,-2.117l161.091,93.004c12.938,7.484 11.288,20.521 -3.646,29.167l-159.616,92.117c-14.929,8.646 -37.517,9.55 -50.45,2.104Z" style="fill:#1f3e79;fill-rule:nonzero;"></path><path d="M2848.35,5653.97l-161.129,-93.038c-12.933,-7.45 -11.267,-20.471 3.629,-29.117l159.617,-92.154c14.933,-8.608 37.554,-9.562 50.487,-2.1l161.059,93.021c12.933,7.45 11.354,20.504 -3.609,29.133l-159.621,92.134c-14.929,8.646 -37.499,9.566 -50.433,2.121Z" style="fill:#1f3e79;fill-rule:nonzero;"></path><path d="M2601.31,5511.43l-161.092,-93.038c-12.934,-7.45 -11.321,-20.504 3.612,-29.116l159.617,-92.15c14.896,-8.613 37.5,-9.567 50.433,-2.084l161.096,93.005c12.933,7.445 11.3,20.52 -3.629,29.129l-159.617,92.137c-14.896,8.609 -37.521,9.563 -50.421,2.117Z" style="fill:#1f3e79;fill-rule:nonzero;"></path><path d="M2855.56,5364.3l-161.126,-93.038c-12.899,-7.45 -11.287,-20.504 3.646,-29.116l52.759,-30.467c14.95,-8.629 37.554,-9.55 50.487,-2.067l161.092,92.988c12.9,7.479 11.304,20.5 -3.646,29.146l-52.758,30.454c-14.967,8.646 -37.517,9.567 -50.454,2.1Z" style="fill:#1f3e79;fill-rule:nonzero;"></path><path d="M3178.77,5550.88l-161.092,-93.037c-12.916,-7.45 -11.321,-20.504 3.646,-29.117l52.758,-30.467c14.95,-8.612 37.517,-9.533 50.455,-2.05l161.091,92.971c12.934,7.479 11.321,20.5 -3.629,29.129l-52.742,30.471c-14.929,8.609 -37.554,9.567 -50.487,2.1Z" style="fill:#1f3e79;fill-rule:nonzero;"></path><path d="M3425.1,5692.8l-161.092,-93c-12.899,-7.467 -11.304,-20.504 3.646,-29.133l52.759,-30.471c14.966,-8.646 37.533,-9.563 50.47,-2.084l161.109,92.971c12.954,7.517 11.287,20.521 -3.608,29.2l-52.78,30.434c-14.929,8.612 -37.554,9.533 -50.504,2.083Z" style="fill:#1f3e79;fill-rule:nonzero;"></path><path d="M3671.52,5835.34l-161.096,-92.988c-12.933,-7.483 -11.321,-20.521 3.646,-29.167l52.725,-30.466c14.967,-8.613 37.554,-9.534 50.487,-2.05l161.092,92.971c12.938,7.479 11.321,20.516 -3.608,29.145l-52.796,30.455c-14.929,8.645 -37.517,9.562 -50.454,2.1l0.004,-0Z" style="fill:#1f3e79;fill-rule:nonzero;"></path><path d="M3918.52,5977.93l-161.058,-93.021c-12.938,-7.433 -11.355,-20.504 3.608,-29.117l52.725,-30.466c14.967,-8.613 37.571,-9.567 50.504,-2.084l161.096,93c12.933,7.484 11.3,20.542 -3.629,29.15l-52.779,30.455c-14.913,8.608 -37.534,9.529 -50.467,2.083Z" style="fill:#1f3e79;fill-rule:nonzero;"></path><path d="M5294.23,6772.18l-161.096,-93.004c-12.933,-7.45 -11.3,-20.504 3.63,-29.117l52.779,-30.483c14.929,-8.613 37.516,-9.567 50.433,-2.05l161.092,92.987c12.933,7.463 11.304,20.538 -3.625,29.146l-52.763,30.438c-14.929,8.608 -37.516,9.529 -50.45,2.083Z" style="fill:#1f3e79;fill-rule:nonzero;"></path><path d="M5540.6,6914.76l-161.096,-93.004c-12.933,-7.446 -11.316,-20.5 3.613,-29.146l52.796,-30.487c14.929,-8.613 37.516,-9.534 50.416,-2.05l161.129,92.971c12.934,7.483 11.284,20.554 -3.629,29.166l-52.779,30.434c-14.929,8.645 -37.516,9.566 -50.45,2.116Z" style="fill:#1f3e79;fill-rule:nonzero;"></path><path d="M5787.65,7056.68l-161.125,-93.021c-12.938,-7.45 -11.271,-20.504 3.662,-29.117l52.759,-30.47c14.912,-8.609 37.554,-9.563 50.454,-2.046l161.091,92.966c12.934,7.484 11.321,20.542 -3.612,29.15l-52.792,30.434c-14.933,8.629 -37.483,9.604 -50.437,2.104Z" style="fill:#1f3e79;fill-rule:nonzero;"></path><path d="M6033.98,7199.22l-161.091,-93.005c-12.934,-7.445 -11.321,-20.52 3.612,-29.129l52.758,-30.471c14.93,-8.645 37.555,-9.566 50.471,-2.083l161.075,92.988c12.95,7.483 11.321,20.52 -3.612,29.15l-52.775,30.466c-14.896,8.613 -37.5,9.567 -50.438,2.084Z" style="fill:#1f3e79;fill-rule:nonzero;"></path><path d="M3592.65,6083.63l-161.079,-93.021c-12.934,-7.462 -11.338,-20.5 3.629,-29.112l159.617,-92.171c14.895,-8.629 37.5,-9.55 50.437,-2.1l161.075,93.021c12.933,7.483 11.321,20.504 -3.612,29.112l-159.617,92.171c-14.896,8.629 -37.517,9.584 -50.45,2.1Z" style="fill:#1f3e79;fill-rule:nonzero;"></path><path d="M3841.02,6227.47l-161.096,-92.967c-12.933,-7.483 -11.3,-20.538 3.612,-29.15l159.634,-92.154c14.896,-8.609 37.521,-9.563 50.416,-2.117l161.096,93.038c12.95,7.45 11.321,20.504 -3.612,29.116l-159.617,92.15c-14.896,8.646 -37.517,9.567 -50.433,2.084Z" style="fill:#1f3e79;fill-rule:nonzero;"></path><path d="M4090.02,6370.72l-161.092,-93.042c-12.937,-7.463 -11.304,-20.521 3.625,-29.129l159.621,-92.138c14.896,-8.629 37.517,-9.55 50.45,-2.1l161.096,93.021c12.896,7.429 11.3,20.504 -3.646,29.113l-159.604,92.154c-14.929,8.612 -37.517,9.583 -50.45,2.116l-0,0.005Z" style="fill:#1f3e79;fill-rule:nonzero;"></path><path d="M4338.98,6514.59l-161.091,-93.005c-12.934,-7.466 -11.305,-20.52 3.629,-29.133l159.616,-92.154c14.93,-8.608 37.517,-9.6 50.45,-2.083l161.096,93.02c12.934,7.434 11.317,20.505 -3.612,29.117l-159.6,92.154c-14.946,8.609 -37.554,9.529 -50.488,2.084Z" style="fill:#1f3e79;fill-rule:nonzero;"></path><path d="M4587.31,6657.84l-161.092,-93.038c-12.9,-7.45 -11.304,-20.487 3.662,-29.117l159.617,-92.187c14.896,-8.608 37.483,-9.529 50.417,-2.05l161.095,92.971c12.934,7.483 11.317,20.537 -3.612,29.166l-159.583,92.134c-14.946,8.646 -37.571,9.566 -50.505,2.121Z" style="fill:#1f3e79;fill-rule:nonzero;"></path><path d="M4836.31,6801.72l-161.096,-93.005c-12.934,-7.483 -11.3,-20.504 3.629,-29.116l159.617,-92.188c14.933,-8.608 37.52,-9.562 50.437,-2.046l161.092,93.005c12.933,7.445 11.304,20.483 -3.629,29.095l-159.584,92.171c-14.929,8.629 -37.55,9.529 -50.467,2.084Z" style="fill:#1f3e79;fill-rule:nonzero;"></path><path d="M5085.31,6945.59l-161.092,-92.971c-12.938,-7.517 -11.304,-20.538 3.625,-29.184l159.621,-92.116c14.929,-8.646 37.516,-9.567 50.45,-2.117l161.075,93.004c12.937,7.479 11.337,20.5 -3.625,29.146l-159.584,92.121c-14.933,8.646 -37.521,9.6 -50.471,2.117Z" style="fill:#1f3e79;fill-rule:nonzero;"></path><path d="M5333.65,7088.76l-161.092,-93.004c-12.933,-7.45 -11.321,-20.504 3.609,-29.133l159.62,-92.134c14.963,-8.629 37.517,-9.55 50.467,-2.083l161.096,93.004c12.933,7.446 11.3,20.5 -3.629,29.113l-159.584,92.154c-14.966,8.608 -37.554,9.562 -50.487,2.083Z" style="fill:#1f3e79;fill-rule:nonzero;"></path><path d="M5582.65,7232.68l-161.092,-93.021c-12.916,-7.429 -11.321,-20.5 3.646,-29.146l159.617,-92.121c14.933,-8.645 37.5,-9.583 50.433,-2.116l161.096,93.021c12.933,7.483 11.321,20.504 -3.629,29.15l-159.584,92.116c-14.966,8.646 -37.55,9.567 -50.487,2.117Z" style="fill:#1f3e79;fill-rule:nonzero;"></path><path d="M2170.31,6101.63l-474.446,-273.941c-12.95,-7.446 -11.317,-20.505 3.646,-29.113l159.62,-92.154c14.93,-8.613 37.517,-9.6 50.467,-2.083l474.429,273.908c12.917,7.446 11.3,20.5 -3.646,29.129l-159.604,92.138c-14.946,8.608 -37.533,9.566 -50.467,2.116Z" style="fill:#1f3e79;fill-rule:nonzero;"></path><path d="M5226.52,7865.59l-474.429,-273.921c-12.934,-7.467 -11.338,-20.504 3.629,-29.15l159.617,-92.121c14.933,-8.646 37.5,-9.583 50.433,-2.1l474.446,273.925c12.933,7.446 11.304,20.504 -3.613,29.112l-159.633,92.155c-14.95,8.612 -37.517,9.533 -50.45,2.1Z" style="fill:#1f3e79;fill-rule:nonzero;"></path><path d="M4231.27,7609.01l-161.092,-93.021c-12.937,-7.483 -11.304,-20.504 3.625,-29.112l190.125,-109.775c14.946,-8.613 37.533,-9.6 50.484,-2.083l161.095,93.004c12.934,7.446 11.3,20.5 -3.629,29.129l-190.137,109.758c-14.934,8.629 -37.538,9.567 -50.471,2.1Z" style="fill:#1f3e79;fill-rule:nonzero;"></path><path d="M2425.19,6565.63l-257.625,-148.771c-12.934,-7.445 -11.284,-20.483 3.612,-29.129l190.158,-109.775c14.946,-8.612 37.55,-9.533 50.484,-2.083l257.587,148.733c12.988,7.484 11.321,20.521 -3.608,29.167l-190.125,109.775c-14.929,8.608 -37.55,9.529 -50.484,2.083Z" style="fill:#1f3e79;fill-rule:nonzero;"></path><path d="M3992.1,7470.26l-257.654,-148.766c-12.9,-7.43 -11.304,-20.505 3.642,-29.113l190.158,-109.775c14.929,-8.612 37.5,-9.567 50.433,-2.083l257.659,148.733c12.9,7.446 11.3,20.5 -3.667,29.129l-190.1,109.775c-14.933,8.646 -37.537,9.567 -50.471,2.1Z" style="fill:#1f3e79;fill-rule:nonzero;"></path><path d="M2783.9,6772.59l-257.621,-148.75c-12.933,-7.48 -11.321,-20.538 3.613,-29.146l190.154,-109.775c14.933,-8.613 37.516,-9.567 50.454,-2.084l257.637,148.734c12.934,7.479 11.305,20.5 -3.629,29.129l-190.154,109.775c-14.896,8.646 -37.521,9.6 -50.454,2.117Z" style="fill:#1f3e79;fill-rule:nonzero;"></path><path d="M2772.31,6484.34l1120.07,646.704c13.905,7.983 13.905,21.021 0,29.062l-193.925,111.909c-13.887,8.037 -36.425,8.037 -50.312,-0l-1120.1,-646.7l244.271,-140.975Z" style="fill:#1f3e79;fill-rule:nonzero;"></path><path d="M4927.19,7869.47l179.408,103.541c10.625,6.163 9.308,16.821 -2.934,23.921l-77.829,44.896c-12.204,7.05 -30.712,7.812 -41.337,1.683l-179.446,-103.575c-10.571,-6.129 -9.25,-16.804 2.971,-23.887l77.779,-44.896c12.254,-7.05 30.779,-7.867 41.388,-1.688l-0,0.005Z" style="fill:#1f3e79;fill-rule:nonzero;"></path><path d="M4676.19,7724.26l179.458,103.613c10.558,6.112 9.254,16.804 -2.983,23.854l-77.763,44.912c-12.275,7.05 -30.779,7.85 -41.387,1.738l-179.43,-103.613c-10.604,-6.091 -9.287,-16.82 2.938,-23.904l77.775,-44.879c12.275,-7.083 30.783,-7.812 41.392,-1.721Z" style="fill:#1f3e79;fill-rule:nonzero;"></path><path d="M4427.19,7580.38l179.429,103.613c10.604,6.108 9.287,16.804 -2.938,23.904l-77.775,44.896c-12.275,7.066 -30.783,7.812 -41.391,1.704l-179.459,-103.613c-10.575,-6.095 -9.254,-16.808 2.984,-23.854l77.762,-44.933c12.275,-7.046 30.779,-7.813 41.388,-1.717Z" style="fill:#1f3e79;fill-rule:nonzero;"></path><path d="M4813.56,7644.76l179.408,103.579c10.608,6.146 9.292,16.838 -2.967,23.888l-77.762,44.896c-12.238,7.083 -30.779,7.866 -41.355,1.737l-179.462,-103.596c-10.604,-6.129 -9.288,-16.82 2.971,-23.87l77.779,-44.93c12.221,-7.066 30.762,-7.829 41.387,-1.704Z" style="fill:#1f3e79;fill-rule:nonzero;"></path><path d="M4483.77,3242.6l-238.071,-137.45c-22.104,-12.762 -35.104,-44.342 -29.062,-70.487c6.041,-26.213 28.854,-37.063 50.954,-24.338l238.037,137.463c22.1,12.745 35.104,44.291 29.063,70.504c-6.075,26.146 -28.854,37.066 -50.921,24.308Z" style="fill:#d4ebfa;fill-rule:nonzero;"></path><path d="M3878.65,4230.72l-238.038,-137.43c-22.12,-12.779 -35.104,-44.358 -29.029,-70.504c6.042,-26.216 28.804,-37.083 50.904,-24.337l238.055,137.462c22.1,12.742 35.087,44.288 29.079,70.504c-6.075,26.146 -28.871,37.05 -50.971,24.305Z" style="fill:#d4ebfa;fill-rule:nonzero;"></path><path d="M3781.44,3062.24l-148.717,-85.866c-22.1,-12.763 -35.104,-44.309 -29.025,-70.504c6.004,-26.163 28.817,-37.05 50.917,-24.288l148.7,85.833c22.083,12.759 35.104,44.321 29.062,70.5c-6.058,26.217 -28.871,37.067 -50.937,24.325Z" style="fill:#d4ebfa;fill-rule:nonzero;"></path><path d="M4049.69,3429.25l-454.409,-262.342c-22.066,-12.746 -35.071,-44.287 -29.062,-70.504c6.041,-26.146 28.854,-37.067 50.954,-24.304l454.375,262.342c22.1,12.762 35.087,44.287 29.062,70.504c-6.075,26.146 -28.854,37.066 -50.92,24.304Z" style="fill:#d4ebfa;fill-rule:nonzero;"></path><path d="M3652.02,3650.26l-148.733,-85.866c-22.1,-12.763 -35.067,-44.309 -29.025,-70.521c6.041,-26.146 28.816,-37.05 50.92,-24.309l148.73,85.871c22.066,12.759 35.07,44.288 29.029,70.5c-6.042,26.146 -28.838,37.067 -50.921,24.325Z" style="fill:#d4ebfa;fill-rule:nonzero;"></path><path d="M3506.77,4016.3l-95.433,-55.121c-22.1,-12.742 -35.138,-44.287 -29.063,-70.504c6.042,-26.179 28.838,-37.067 50.954,-24.304l95.417,55.121c22.1,12.741 35.142,44.287 29.062,70.504c-6.041,26.146 -28.837,37.066 -50.937,24.304Z" style="fill:#d4ebfa;fill-rule:nonzero;"></path><path d="M3438.56,4427.09l-118.542,-68.438c-22.1,-12.746 -35.104,-44.292 -29.063,-70.504c6.075,-26.163 28.838,-37.067 50.938,-24.304l118.558,68.416c22.067,12.763 35.071,44.342 29.029,70.521c-6.008,26.167 -28.82,37.05 -50.92,24.309Z" style="fill:#d4ebfa;fill-rule:nonzero;"></path><path d="M3899.27,4693.51l-312.517,-180.433c-22.1,-12.763 -35.104,-44.342 -29.062,-70.521c6.041,-26.179 28.854,-37.067 50.921,-24.304l312.55,180.433c22.066,12.759 35.07,44.304 29.029,70.504c-5.992,26.18 -28.821,37.067 -50.921,24.321Z" style="fill:#d4ebfa;fill-rule:nonzero;"></path><path d="M3498.77,4687.47l-224.738,-129.771c-22.066,-12.746 -35.104,-44.292 -29.062,-70.504c6.075,-26.184 28.887,-37.034 50.917,-24.271l224.758,129.721c22.083,12.725 35.087,44.304 29.046,70.47c-6.042,26.196 -28.854,37.1 -50.921,24.355Z" style="fill:#d4ebfa;fill-rule:nonzero;"></path><path d="M4241.56,3765.02l-692.292,-399.725c-22.1,-12.759 -35.071,-44.288 -29.029,-70.467c6.041,-26.179 28.82,-37.067 50.92,-24.325l692.292,399.687c22.1,12.763 35.104,44.292 29.029,70.505c-6.041,26.183 -28.821,37.066 -50.921,24.325Z" style="fill:#d4ebfa;fill-rule:nonzero;"></path><path d="M3854.52,3992.09l-397.225,-229.325c-22.084,-12.759 -35.104,-44.305 -29.025,-70.484c6.021,-26.2 28.833,-37.066 50.9,-24.308l397.241,229.308c22.067,12.742 35.067,44.321 29.025,70.5c-6.041,26.184 -28.854,37.067 -50.916,24.309Z" style="fill:#d4ebfa;fill-rule:nonzero;"></path><path d="M3843.44,4435.93l-477.446,-275.675c-22.104,-12.742 -35.109,-44.308 -29.03,-70.471c6.009,-26.212 28.821,-37.067 50.921,-24.321l477.446,275.659c22.1,12.745 35.071,44.287 29.063,70.504c-6.042,26.179 -28.854,37.066 -50.955,24.304Z" style="fill:#d4ebfa;fill-rule:nonzero;"></path><path d="M4029.73,2979.98l-351.008,-202.654c-22.1,-12.742 -35.121,-44.288 -29.063,-70.504c6.042,-26.146 28.855,-37.067 50.955,-24.304l351.008,202.654c22.1,12.762 35.083,44.325 29.046,70.504c-6.025,26.179 -28.838,37.067 -50.942,24.304l0.004,0Z" style="fill:#d4ebfa;fill-rule:nonzero;"></path><path d="M3626.69,4998.76l-406.546,-234.741c-22.1,-12.775 -35.104,-44.321 -29.025,-70.505c6.004,-26.212 28.816,-37.062 50.916,-24.304l406.546,234.688c22.067,12.762 35.071,44.325 29.063,70.521c-6.075,26.162 -28.871,37.083 -50.954,24.341Z" style="fill:#d4ebfa;fill-rule:nonzero;"></path><path d="M6377.77,5855.43l-238.038,-137.467c-22.066,-12.779 -35.108,-44.325 -29.029,-70.471c6.042,-26.212 28.838,-37.1 50.921,-24.337l238.038,137.429c22.1,12.742 35.12,44.325 29.062,70.504c-6.075,26.179 -28.854,37.084 -50.954,24.338l-0,0.004Z" style="fill:#d4ebfa;fill-rule:nonzero;"></path><path d="M6548.81,5053.97l-454.413,-262.363c-22.067,-12.742 -35.067,-44.287 -29.025,-70.504c6.042,-26.179 28.854,-37.067 50.917,-24.304l454.395,262.341c22.084,12.746 35.05,44.309 29.042,70.505c-6.004,26.145 -28.887,37.066 -50.917,24.325Z" style="fill:#d4ebfa;fill-rule:nonzero;"></path><path d="M6151.81,5274.97l-148.75,-85.867c-22.034,-12.746 -35.071,-44.292 -29.03,-70.504c6.042,-26.184 28.855,-37.05 50.955,-24.304l148.7,85.866c22.083,12.742 35.066,44.304 29.062,70.504c-6.042,26.146 -28.837,37.067 -50.937,24.305Z" style="fill:#d4ebfa;fill-rule:nonzero;"></path><path d="M6006.56,5641.01l-95.45,-55.121c-22.121,-12.758 -35.071,-44.32 -29.046,-70.504c6.004,-26.179 28.816,-37.062 50.921,-24.304l95.466,55.104c22.067,12.763 35.088,44.304 29.029,70.488c-6.041,26.179 -28.854,37.083 -50.92,24.337Z" style="fill:#d4ebfa;fill-rule:nonzero;"></path><path d="M6704.52,5593.84l-397.221,-229.359c-22.067,-12.762 -35.121,-44.291 -29.062,-70.504c6.075,-26.146 28.887,-37.067 50.987,-24.304l397.188,229.354c22.087,12.763 35.07,44.292 29.029,70.471c-6.042,26.179 -28.838,37.1 -50.921,24.337l-0,0.005Z" style="fill:#d4ebfa;fill-rule:nonzero;"></path><path d="M6741.35,5389.72l-692.275,-399.705c-22.029,-12.745 -35.071,-44.308 -29.029,-70.47c6.025,-26.217 28.838,-37.067 50.904,-24.321l692.292,399.687c22.1,12.742 35.104,44.304 29.062,70.5c-6.041,26.146 -28.854,37.067 -50.954,24.309Z" style="fill:#d4ebfa;fill-rule:nonzero;"></path><path d="M6354.27,5616.8l-397.171,-229.342c-22.083,-12.741 -35.071,-44.321 -29.046,-70.466c6.042,-26.217 28.838,-37.067 50.938,-24.309l397.204,229.288c22.067,12.762 35.071,44.308 28.996,70.504c-6.009,26.183 -28.821,37.067 -50.921,24.325Z" style="fill:#d4ebfa;fill-rule:nonzero;"></path><path d="M6342.6,6060.63l-477.466,-275.679c-22.1,-12.758 -35.105,-44.321 -29.025,-70.487c6.037,-26.196 28.816,-37.046 50.916,-24.305l477.45,275.659c22.1,12.746 35.138,44.291 29.063,70.504c-6.059,26.146 -28.838,37.067 -50.938,24.308Z" style="fill:#d4ebfa;fill-rule:nonzero;"></path><path d="M7411.35,3200.31l375.192,-149.275l-84.396,-551.908l-182.117,161.338l-108.679,539.845Z" style="fill:#5593ce;fill-rule:nonzero;"></path><path d="M4900.4,626.95l906.354,-362.188l-167.258,362.188l-483.992,112.021l-255.104,-112.021Z" style="fill:#5593ce;fill-rule:nonzero;"></path><path d="M7742.81,2128.94c-47.884,-27.687 -97.517,-43.816 -146.875,-50.5c50.033,-333.579 -94.08,-685.658 -370.659,-845.433c-83.196,-48.067 -173.646,-75.9 -259.15,-81.446c108.367,-404.316 -59.046,-863.8 -400.225,-1060.91c-178.179,-102.975 -370.871,-115.142 -540.608,-52.083l0.121,-0.338l-8.317,3.342c-4.375,1.683 -8.733,3.429 -13.054,5.208l-283.959,111.742l113.246,97.383c-153.591,48.438 -286.387,172.596 -356.508,356.188c-129.342,338.52 3.296,750.125 296.3,919.4l1741.55,1468.02c219.983,127.084 353.542,74.03 450.625,-180.208c97.117,-254.183 -2.483,-563.283 -222.483,-690.367Z" style="fill:#5593ce;fill-rule:nonzero;"></path><path d="M5556.06,463.008l976.891,-390.271c-168.816,-86.262 -348.404,-93.37 -507.708,-34.175l0.121,-0.337l-8.313,3.342c-4.379,1.683 -8.733,3.429 -13.058,5.208l-283.958,111.742l113.245,97.387c-107.358,33.842 -204.462,104.813 -277.22,207.104Z" style="fill:#5593ce;fill-rule:nonzero;"></path><path d="M6916.48,1927.69l645.071,-257.254c-59.6,-184.375 -177.154,-345.508 -339.6,-439.371c-21.479,-12.42 -43.212,-23.3 -65.104,-32.737l-888.629,354.883l648.262,374.479Z" style="fill:#5593ce;fill-rule:nonzero;"></path><path d="M5918.69,198.837l276.87,159.963l480.417,-191.325c-34.2,-28.779 -70.658,-54.775 -109.583,-77.213c-61.371,-35.47 -124.459,-59.933 -187.83,-74.491l-459.875,183.066Z" style="fill:#d4ebfa;fill-rule:nonzero;"></path><path d="M7518.94,1562.95l-464.342,184.842l136.996,192.45l398.437,-158.421c-14.321,-76.234 -38.367,-150.017 -71.091,-218.871Z" style="fill:#d4ebfa;fill-rule:nonzero;"></path><path d="M7432.77,2250.63c-47.883,-27.658 -97.521,-43.804 -146.879,-50.454c50.004,-333.592 -97.792,-687.846 -374.371,-847.621c-83.213,-48.096 -169.967,-73.788 -255.438,-79.275c108.371,-404.342 -59.062,-863.825 -400.187,-1060.94c-366.842,-211.975 -795.592,-40.125 -957.554,383.809c-5.488,14.375 -10.538,28.875 -15.259,43.433c-279.95,-124.521 -589.429,15.787 -710.921,333.804c-129.325,338.521 3.334,750.158 296.317,919.396l2212.6,1278.39c219.984,127.1 477.05,24.096 574.167,-230.12c97.121,-254.205 -2.479,-563.3 -222.479,-690.417Z" style="fill:#d4ebfa;fill-rule:nonzero;"></path><path d="M7478.44,2225.63c-47.846,-27.642 -97.484,-43.804 -146.875,-50.454c50.033,-333.592 -97.78,-687.846 -374.375,-847.646c-83.175,-48.067 -169.93,-73.754 -255.434,-79.246c108.367,-404.337 -59.012,-863.854 -400.175,-1060.97c-219.15,-126.604 -460.312,-116.179 -653.558,3.009c184.792,-94.296 405.696,-94.267 607.9,22.558c341.129,197.113 508.558,656.6 400.191,1060.94c85.467,5.487 172.221,31.183 255.417,79.275c276.596,159.804 424.392,514.025 374.392,847.616c49.358,6.65 98.991,22.813 146.875,50.454c220.017,127.117 319.6,436.213 222.483,690.417c-37.521,98.192 -99.046,173.504 -172.916,222.029c94.079,-45 173.591,-129.825 218.575,-247.571c97.1,-254.183 -2.484,-563.279 -222.5,-690.416l-0,0.004Z" style="fill:#fff;fill-rule:nonzero;"></path><path d="M5283.02,639.629c4.15,-12.75 8.612,-25.383 13.333,-37.95c-151.704,-56.158 -309.254,-36.937 -439.308,44.758c130.087,-64.379 281.825,-70.933 425.975,-6.808Z" style="fill:#fff;fill-rule:nonzero;"></path><path d="M5032.98,705.825c-41.096,-0 -80.521,7.85 -116.704,23.608c-87.846,38.321 -163.817,127.246 -208.383,243.954c-113.646,297.446 7.846,674.371 265.258,823.05l2212.63,1278.39c69.546,40.121 141.525,50.258 197.412,27.917c55.938,-22.434 105.625,-81.392 136.317,-161.7c82,-214.655 -5.658,-486.688 -191.437,-594.03c-34.03,-19.687 -69.463,-32.066 -105.246,-36.912l-89.792,-12.15l11.529,-76.996c46.179,-307.621 -95.921,-632.292 -337.762,-772.05c-66.613,-38.5 -135.05,-60.262 -203.542,-64.646l-111.333,-7.241l25.016,-93.371c99.375,-370.771 -61.25,-799.029 -365.745,-974.925c-141.563,-81.784 -290.73,-98.304 -419.88,-46.592c-129.183,51.8 -234.741,170.408 -297.241,334.017c-4.842,12.691 -9.288,25.471 -13.454,38.316l-59.688,183.259l-173.542,-77.159c-51.995,-23.145 -104.445,-34.737 -154.408,-34.737Z" style="fill:#386dab;fill-rule:nonzero;"></path><path d="M6117.1,2128l76.217,-30.675l-59.254,-45.592l-16.963,76.267Z" style="fill:#b58a2d;fill-rule:nonzero;"></path><path d="M6078.98,1301.89l74.046,-29.983l-5.225,31.05l-68.821,-1.067Z" style="fill:#5593ce;fill-rule:nonzero;"></path><path d="M6356.15,1934.77l77.237,-31.109l-112.62,-113.404l35.383,144.513Z" style="fill:#f6e4bc;fill-rule:nonzero;"></path><path d="M6173.27,2095.5l-295.279,-170.467c-15,-8.646 -24.03,-30.433 -20.175,-48.679l70.766,-335.087l349.546,201.804l-70.779,335.087c-3.837,18.246 -19.1,25.988 -34.079,17.342Z" style="fill:#b58a22;fill-rule:nonzero;"></path><path d="M6152.27,1272.52l-398.996,201.162c-16.942,8.525 -11.283,40.346 9.254,52.204l325.713,188.075l325.712,188.021c20.504,11.875 36.946,-7.225 26.875,-31.354l-236.579,-568.129c-10.225,-24.529 -34.742,-38.692 -51.979,-29.979Z" style="fill:#f5e5bd;fill-rule:nonzero;"></path><path d="M6095.73,2126.35l-295.258,-170.437c-15.017,-8.646 -24.046,-30.45 -20.175,-48.68l70.729,-335.087l349.55,201.771l-70.746,335.121c-3.837,18.229 -19.1,25.991 -34.1,17.308l0,0.004Z" style="fill:#febf2f;fill-rule:nonzero;"></path><path d="M6074.77,1304.03l-399.046,201.192c-16.929,8.525 -11.283,40.346 9.254,52.237l325.713,188.005l325.712,188.075c20.571,11.854 36.942,-7.275 26.875,-31.392l-236.583,-568.1c-10.225,-24.529 -34.704,-38.692 -51.925,-30.017Z" style="fill:#febf2f;fill-rule:nonzero;"></path><path d="M5430.94,4219.55l-702.692,-403.021l77.571,-421.942l702.708,403l-77.587,421.963Z" style="fill:#4768ad;fill-rule:nonzero;"></path><path d="M5002.44,4441.34l-351.721,-201.721l77.587,-421.946l351.7,201.704l-77.567,421.963Z" style="fill:#efbf42;fill-rule:nonzero;"></path><path d="M5353.23,4642.63l-350.991,-201.304l77.57,-421.958l351.009,201.3l-77.588,421.962Z" style="fill:#a0c3e7;fill-rule:nonzero;"></path><path d="M4200.6,4513.8l47.846,-260.192l-82.583,-47.362l6.458,-35.084l198.625,113.921l-6.438,35.088l-83.316,-47.779l-47.829,260.191l-32.763,-18.783Zm230.575,102.917c-13.596,5.433 -26.392,6.612 -37.312,6.025c-11.475,-1.842 -23.334,-5.8 -35.434,-12.746c-19.929,-11.438 -34.495,-26.404 -43.125,-43.663c-8.487,-18.108 -10.779,-35.521 -7.483,-53.487c1.896,-10.279 5.75,-18.454 10.888,-24.984c5.85,-6.112 12.795,-9.687 20.312,-11.995c7.342,-1.459 15.104,-0.8 24.113,1.525c6.166,0.695 15.729,4.291 28.162,9.533c25.538,10.867 44.842,17.204 57.013,19.446c0.954,-5.125 1.579,-8.563 1.737,-9.413c2.829,-15.4 1.875,-27.308 -2.725,-36.562c-6.25,-13.054 -17.017,-23.004 -32.675,-31.996c-14.237,-8.158 -25.4,-11.717 -33.612,-9.808c-8.23,1.908 -15.105,9.32 -20.78,23.091l-29.829,-21.841c5.679,-13.767 12.867,-22.9 20.296,-29.046c8.142,-5.729 18.821,-8.125 31.858,-6.321c12.188,2.258 26.179,7.433 41.842,16.425c15.658,8.975 28.158,18.037 36.629,27.637c9.188,9.984 15.208,20.071 18.371,28.509c3.733,9.704 5.154,19.046 5.4,30.537c-0.383,6.392 -1.721,17.934 -4.708,34.184l-8.817,47.937c-6.288,34.233 -9.517,56.042 -9.654,65.417c-0.313,10.241 0.242,20.016 3.108,30.171l-32.762,-18.784c-1.58,-8.471 -1.996,-19.116 -0.813,-29.791Zm11.942,-82.1c-11.613,-0.992 -29.496,-6.513 -52.342,-14.88c-13.142,-5.641 -22.867,-8.387 -28.316,-8.679c-5.451,-0.279 -10.521,1.542 -14.305,5.05c-3.804,3.509 -6.32,8.679 -7.433,14.671c-1.875,10.258 -0.45,19.6 4.862,29.271c5.138,10.521 13.767,19.254 25.155,25.779c12.104,6.946 23.42,9.654 33.77,8.958c10.363,-0.675 18.35,-5.57 24.513,-13.383c5.121,-6.512 8.75,-17.675 11.737,-33.942l2.359,-12.845Zm58.646,151.908l54.287,-295.279l30.625,17.554l-54.287,295.279l-30.625,-17.554Zm77.604,44.512l54.287,-295.291l30.625,17.566l-54.287,295.28l-30.625,-17.555Zm62.346,127.521l2.725,-36.271c6.091,5.384 11.475,10.367 16.458,13.213c7.117,4.079 13.142,5.642 17.171,5.121c4.737,-0.121 9.096,-2.359 12.725,-5c2.204,-3.471 7.341,-9.979 14.287,-22.084c1.025,-1.3 2.363,-4.32 4.429,-6.925l-29.566,-254.445l32.741,18.787l15.642,146.163c1.442,17.845 3.267,37.829 3.683,56.979c6.7,-15.071 13.975,-28.892 21.788,-41.425l61.421,-102.917l30.608,17.554l-109.025,177.792c-11.529,19.879 -20.208,32.883 -26.062,38.996c-7.188,9.112 -15.171,13.991 -23.384,15.9c-8.075,1.062 -17.241,-0.417 -27.204,-6.125c-5.696,-3.284 -11.787,-8.667 -18.437,-15.313Zm195.379,20.292l54.308,-295.292l93.975,53.904c17.083,9.792 29.738,18.005 37.967,24.617c11.633,9.5 21.371,20.767 27.933,32.104c7.292,11.75 11.963,24.842 15.454,40.084c2.796,14.845 2.413,29.758 -0.262,44.308c-4.567,24.825 -14.913,42.55 -31.579,51.908c-16.842,10.209 -43.334,4.479 -78.213,-15.521l-64.792,-37.154l-22.029,119.813l-32.762,-18.771Zm61.233,-136.146l64.792,37.154c21.371,12.259 37.812,16.963 48.091,12.45c10.988,-4.116 17.775,-15.35 20.921,-32.466c2.204,-11.98 1.25,-23.888 -2.016,-36.163c-3.4,-11.425 -9.425,-21.496 -17.5,-28.958c-5.363,-4.984 -15.9,-11.963 -30.85,-20.538l-64.08,-36.754l-19.358,105.275Zm168.021,267.625l39.342,-213.979l27.066,15.521l-5.991,32.521c9.966,-11.321 18.804,-16.65 25.454,-18.525c6.629,-1.875 14.062,0.504 21.196,4.583c9.966,5.712 20.016,15.275 29.27,29.096l-16.979,28.108c-6.008,-10.071 -13.366,-17.137 -20.487,-21.217c-7.117,-4.079 -13.296,-4.775 -19.929,-2.916c-6.475,1.025 -11.305,5.816 -15.017,13.162c-5.921,10.796 -9.863,23.679 -12.692,39.079l-20.608,112.117l-30.625,-17.55Zm163.35,-186.392l7.708,-41.925l30.609,17.55l-7.709,41.946l-30.608,-17.571Zm-46.579,253.35l39.341,-213.975l30.609,17.555l-39.342,213.975l-30.608,-17.555Zm77.604,44.517l39.342,-213.975l27.758,15.917l-5.504,29.95c7.587,-6.996 16.287,-11.475 27.346,-11.754c10.52,-1.53 21.666,2.033 33.766,8.958c13.525,7.762 23.734,16.458 31.025,28.212c7.988,12.155 11.963,24.825 13.471,38.005c18.804,-16.667 39.517,-18.021 63.021,-4.55c17.796,10.208 30.383,23.108 38.142,40.8c7.762,17.691 8.733,38.125 4.166,62.95l-26.908,146.354l-30.625,-17.571l24.721,-134.375c2.675,-14.546 3.837,-25.225 2.971,-33.296c-1.042,-7.204 -3.646,-14.392 -7.846,-21.529c-4.359,-6.283 -10.296,-12.517 -17.417,-16.613c-12.812,-7.345 -24.442,-8.333 -34.858,-2.97c-9.725,5.783 -16.825,18.75 -20.921,40.991l-22.813,124.113l-31.337,-17.967l25.504,-138.667c2.988,-16.25 3.054,-29.458 -0.367,-40.883c-3.558,-10.554 -11.316,-19.742 -22.708,-26.267c-8.542,-4.895 -16.854,-6.825 -25.066,-4.912c-8.788,0.642 -15.176,5.483 -20.626,13.712c-4.741,8.646 -9.704,22.813 -13.333,42.5l-20.296,110.417l-30.608,-17.55Zm428.367,169.983l31.25,22.655c-9.792,18.975 -21.475,31.2 -37.917,35.016c-15.729,4.221 -33.921,0.417 -54.563,-11.421c-27.05,-15.52 -45.975,-36.77 -58.02,-65.454c-12.188,-27.812 -14.984,-59.687 -8.542,-94.775c6.613,-35.954 19.479,-58.854 38.921,-70.396c19.271,-10.712 41.65,-8.283 66.579,6.005c24.204,13.891 42.417,34.741 54.446,63.404c11.337,28.262 14.133,60.137 7.675,95.225c-0.313,1.721 -0.938,5.137 -1.721,9.429l-135.275,-77.588c-3.7,24.375 -1.304,45.609 6.458,63.317c8.313,18.958 20.034,32.292 34.98,40.867c11.391,6.546 21.287,8.421 30.366,6.075c9.809,-1.963 17.55,-9.809 25.363,-22.359Zm-90.242,-117.033l101.113,57.971c2.587,-18.388 0.833,-34.517 -4.013,-46.754c-7.446,-19.413 -18.837,-34.463 -33.783,-43.038c-14.255,-8.179 -27.45,-9.116 -38.75,-3.3c-12.013,5.417 -19.671,17.1 -24.567,35.121Z" style="fill:#4768ad;fill-rule:nonzero;"></path><path d="M3896.27,5447.34l40.642,-149.305l14.408,8.409l-3.817,14.025c4.888,-3.504 9.846,-5.384 14.867,-5.629c5.025,-0.25 10.583,1.404 16.675,4.958c7.962,4.65 14.346,11.121 19.146,19.421c4.8,8.296 7.579,17.671 8.329,28.121c0.754,10.454 -0.271,20.829 -3.075,31.125c-3.004,11.045 -7.425,19.991 -13.259,26.833c-5.833,6.842 -12.658,10.712 -20.47,11.608c-7.813,0.9 -15.321,-0.754 -22.525,-4.958c-5.271,-3.079 -9.65,-7.125 -13.138,-12.146c-3.487,-5.017 -6.041,-10.279 -7.666,-15.779l-14.305,52.546l-15.812,-9.229Zm40.104,-86.367c-3.779,13.887 -4.142,25.571 -1.092,35.05c3.055,9.479 8.038,16.233 14.95,20.267c7.029,4.104 13.984,4.175 20.863,0.22c6.879,-3.954 12.283,-13.15 16.212,-27.579c3.746,-13.754 4.105,-25.483 1.075,-35.179c-3.029,-9.7 -7.937,-16.529 -14.733,-20.496c-6.737,-3.929 -13.687,-3.766 -20.854,0.492c-7.167,4.258 -12.638,13.333 -16.421,27.225Z" style="fill-opacity:0.6;fill-rule:nonzero;"></path><path d="M4016.4,5407.01c5.442,-19.987 14.275,-31.987 26.5,-36.004c10.2,-3.312 21.066,-1.6 32.608,5.133c12.825,7.488 21.988,18.467 27.484,32.942c5.491,14.475 5.908,30.283 1.241,47.425c-3.783,13.892 -8.558,23.767 -14.325,29.625c-5.771,5.858 -12.696,8.983 -20.775,9.371c-8.083,0.387 -16.192,-1.796 -24.333,-6.546c-13.063,-7.625 -22.3,-18.629 -27.717,-33.021c-5.417,-14.387 -5.646,-30.696 -0.683,-48.925Zm16.254,9.488c-3.762,13.825 -3.975,25.696 -0.633,35.612c3.341,9.921 8.966,17.188 16.871,21.804c7.85,4.58 15.32,4.938 22.416,1.067c7.092,-3.871 12.567,-12.883 16.421,-27.046c3.633,-13.35 3.767,-24.991 0.396,-34.929c-3.371,-9.933 -8.95,-17.175 -16.742,-21.725c-7.904,-4.612 -15.396,-5.021 -22.471,-1.217c-7.079,3.8 -12.495,12.613 -16.258,26.434Z" style="fill-opacity:0.6;fill-rule:nonzero;"></path><path d="M4124.9,5532.84l0.829,-124.6l16.342,9.537l-2.113,70.967l-0.771,26.404c0.546,-1.017 4.18,-7.496 10.892,-19.438l32.054,-54.554l16.254,9.488l-3.075,70.758l-0.958,23.35l11.029,-17.708l32.979,-53.071l15.375,8.975l-58.55,90.912l-16.429,-9.587l2.746,-73.308l1.408,-20.496l-41.491,72.012l-16.521,-9.641Z" style="fill-opacity:0.6;fill-rule:nonzero;"></path><path d="M4310.94,5601.18l15.708,11.875c-5.583,9.542 -12.692,15.325 -21.321,17.358c-8.629,2.029 -18.362,-0.116 -29.2,-6.441c-13.646,-7.967 -23.146,-19.142 -28.492,-33.534c-5.35,-14.387 -5.633,-30.358 -0.858,-47.904c4.942,-18.162 12.821,-29.896 23.633,-35.208c10.813,-5.309 22.663,-4.204 35.546,3.316c12.479,7.28 21.334,18.142 26.567,32.58c5.229,14.441 5.421,30.57 0.571,48.391c-0.296,1.084 -0.767,2.692 -1.417,4.825l-69.583,-40.608c-2.642,12.2 -2.213,22.971 1.283,32.317c3.5,9.341 9.142,16.287 16.933,20.833c5.8,3.383 11.23,4.512 16.288,3.379c5.058,-1.129 9.837,-4.854 14.342,-11.179Zm-43.871,-59.879l52.1,30.404c1.766,-9.488 1.629,-17.458 -0.413,-23.913c-3.121,-9.987 -8.691,-17.32 -16.716,-22.004c-7.263,-4.241 -14.134,-4.991 -20.617,-2.258c-6.479,2.737 -11.263,8.658 -14.354,17.771Z" style="fill-opacity:0.6;fill-rule:nonzero;"></path><path d="M4337.52,5656.93l29.379,-107.938l14.233,8.305l-4.454,16.366c5.717,-5.537 10.442,-8.629 14.183,-9.275c3.738,-0.646 7.455,0.113 11.142,2.263c5.329,3.112 10.213,8.237 14.65,15.383l-10.066,13.792c-3.146,-4.896 -6.655,-8.475 -10.521,-10.729c-3.454,-2.017 -6.888,-2.63 -10.292,-1.83c-3.408,0.8 -6.279,2.992 -8.612,6.575c-3.53,5.48 -6.342,12.084 -8.446,19.809l-15.384,56.508l-15.812,-9.229Z" style="fill-opacity:0.6;fill-rule:nonzero;"></path><path d="M4470.94,5694.51l15.704,11.875c-5.584,9.542 -12.692,15.329 -21.321,17.359c-8.629,2.029 -18.363,-0.117 -29.2,-6.442c-13.646,-7.963 -23.142,-19.142 -28.492,-33.529c-5.35,-14.392 -5.633,-30.359 -0.858,-47.909c4.942,-18.158 12.821,-29.895 23.633,-35.204c10.813,-5.312 22.663,-4.208 35.55,3.313c12.475,7.283 21.329,18.141 26.563,32.583c5.229,14.438 5.421,30.567 0.571,48.388c-0.296,1.083 -0.767,2.695 -1.417,4.829l-69.583,-40.613c-2.642,12.2 -2.213,22.971 1.287,32.317c3.496,9.342 9.138,16.287 16.929,20.833c5.8,3.388 11.229,4.513 16.288,3.384c5.058,-1.134 9.841,-4.859 14.346,-11.184Zm-43.875,-59.879l52.1,30.408c1.766,-9.491 1.629,-17.462 -0.413,-23.916c-3.121,-9.988 -8.692,-17.321 -16.717,-22.004c-7.262,-4.238 -14.133,-4.992 -20.612,-2.255c-6.483,2.734 -11.267,8.659 -14.358,17.767Z" style="fill-opacity:0.6;fill-rule:nonzero;"></path><path d="M4558.19,5785.76l3.708,-13.621c-8.829,7.255 -18.988,7.53 -30.467,0.83c-7.437,-4.342 -13.629,-10.705 -18.575,-19.088c-4.95,-8.383 -7.979,-17.825 -9.091,-28.329c-1.109,-10.504 -0.163,-21.275 2.845,-32.321c2.93,-10.775 7.142,-19.642 12.638,-26.604c5.492,-6.963 11.979,-10.971 19.458,-12.025c7.484,-1.05 15.059,0.662 22.734,5.142c5.62,3.283 10.254,7.575 13.9,12.883c3.645,5.308 6.245,10.967 7.8,16.979l14.554,-53.462l15.725,9.179l-40.559,149l-14.671,-8.563Zm-35.329,-83.046c-3.762,13.825 -4.054,25.63 -0.879,35.413c3.171,9.783 8.188,16.675 15.038,20.671c6.912,4.033 13.675,4.191 20.287,0.475c6.613,-3.721 11.742,-12.288 15.396,-25.704c4.021,-14.771 4.512,-27.046 1.471,-36.83c-3.038,-9.783 -8.159,-16.775 -15.363,-20.979c-7.029,-4.104 -13.804,-4.208 -20.329,-0.321c-6.521,3.888 -11.729,12.98 -15.621,27.275Z" style="fill-opacity:0.6;fill-rule:nonzero;"></path><path d="M4662.31,5846.51l-14.675,-8.566l40.558,-148.996l15.817,9.229l-14.471,53.154c9.312,-5.792 19.154,-5.662 29.521,0.388c5.741,3.35 10.808,7.858 15.208,13.525c4.396,5.67 7.587,11.891 9.579,18.666c1.992,6.775 2.992,14.134 3.004,22.071c0.009,7.938 -1.046,15.8 -3.166,23.592c-5.034,18.5 -12.88,30.487 -23.534,35.971c-10.658,5.479 -21.521,4.991 -32.587,-1.471c-11.013,-6.425 -18.204,-16.788 -21.575,-31.084l-3.679,13.521Zm14.733,-54.887c-3.521,12.941 -4.546,23.183 -3.067,30.721c2.417,12.32 7.871,20.962 16.363,25.92c6.912,4.034 13.829,4.046 20.758,0.042c6.929,-4.008 12.262,-12.887 16.008,-26.642c3.838,-14.091 4.25,-25.904 1.246,-35.433c-3.008,-9.529 -7.937,-16.292 -14.791,-20.292c-6.909,-4.033 -13.83,-4.045 -20.759,-0.041c-6.925,4.004 -12.179,12.579 -15.758,25.725Z" style="fill-opacity:0.6;fill-rule:nonzero;"></path><path d="M4735.77,5937.55l2.917,-18.204c3.162,3.1 6.029,5.404 8.608,6.908c3.512,2.05 6.508,3.013 8.987,2.888c2.475,-0.125 4.721,-1.013 6.734,-2.667c1.491,-1.246 4.337,-4.846 8.537,-10.796c0.571,-0.846 1.446,-2.062 2.625,-3.654l-5.971,-128.804l17.042,9.946l2.404,73.841c0.358,9.396 0.346,19.046 -0.042,28.95c4.105,-7.341 8.5,-14.275 13.196,-20.804l37.071,-51.271l15.813,9.229l-65.371,89.05c-7.038,9.638 -12.217,16.075 -15.542,19.317c-4.454,4.392 -8.879,6.929 -13.275,7.625c-4.396,0.692 -9.117,-0.433 -14.15,-3.371c-3.046,-1.779 -6.242,-4.508 -9.583,-8.183Z" style="fill-opacity:0.6;fill-rule:nonzero;"></path><path d="M4952.27,6000.3c-7.425,2.337 -14.171,3.117 -20.233,2.325c-6.063,-0.792 -12.2,-3 -18.409,-6.621c-10.25,-5.983 -17.337,-13.479 -21.266,-22.483c-3.93,-9.009 -4.667,-18.017 -2.217,-27.029c1.442,-5.284 3.796,-9.505 7.062,-12.663c3.271,-3.154 6.946,-5.071 11.034,-5.75c4.087,-0.675 8.425,-0.462 13.012,0.642c3.363,0.866 8.296,2.683 14.804,5.462c13.246,5.692 23.221,9.075 29.917,10.159c0.742,-2.475 1.204,-4.05 1.388,-4.725c2.029,-7.455 1.962,-13.58 -0.192,-18.371c-2.917,-6.492 -8.358,-12.063 -16.325,-16.713c-7.438,-4.337 -13.338,-6.037 -17.704,-5.087c-4.363,0.946 -8.438,4.75 -12.221,11.416l-14.8,-11.462c3.492,-6.838 7.487,-11.671 11.992,-14.5c4.504,-2.829 10.145,-3.738 16.929,-2.721c6.783,1.013 14.187,3.863 22.212,8.546c7.963,4.65 14.142,9.508 18.529,14.583c4.388,5.075 7.309,9.938 8.755,14.592c1.449,4.654 1.958,9.762 1.533,15.321c-0.321,3.425 -1.588,9.204 -3.804,17.333l-6.638,24.392c-4.629,17.008 -7.221,27.962 -7.775,32.862c-0.55,4.896 -0.396,9.996 0.471,15.292l-16.517,-9.642c-0.608,-4.75 -0.454,-9.804 0.463,-15.158Zm9.804,-41.629c-6.479,-0.638 -15.717,-3.359 -27.713,-8.163c-6.795,-2.712 -11.725,-4.175 -14.791,-4.391c-3.063,-0.217 -5.679,0.55 -7.854,2.304c-2.175,1.754 -3.696,4.225 -4.563,7.408c-1.329,4.879 -0.837,9.875 1.467,14.992c2.308,5.116 6.537,9.466 12.687,13.058c6.092,3.554 11.929,5.175 17.513,4.858c5.583,-0.312 10.216,-2.495 13.9,-6.55c2.821,-3.141 5.333,-8.745 7.525,-16.808l1.829,-6.708Z" style="fill-opacity:0.6;fill-rule:nonzero;"></path><path d="M5005.06,6046.55l0.825,-124.604l16.341,9.537l-2.108,70.967l-0.775,26.404c0.55,-1.012 4.179,-7.492 10.892,-19.437l32.054,-54.55l16.254,9.483l-3.071,70.762l-0.958,23.35l11.029,-17.708l32.975,-53.075l15.375,8.975l-58.55,90.913l-16.429,-9.588l2.75,-73.304l1.404,-20.5l-41.492,72.012l-16.516,-9.637Z" style="fill-opacity:0.6;fill-rule:nonzero;"></path><path d="M5120.19,6076.38l16.416,6.279c-1.096,7.763 -0.162,14.746 2.796,20.95c2.963,6.205 8.046,11.409 15.25,15.613c7.262,4.242 13.117,5.675 17.563,4.304c4.445,-1.371 7.295,-4.362 8.55,-8.967c1.124,-4.133 0.458,-8.291 -2.001,-12.475c-1.725,-2.891 -6.549,-8.104 -14.479,-15.637c-10.675,-10.154 -17.916,-17.779 -21.725,-22.867c-3.804,-5.087 -6.27,-10.491 -7.395,-16.212c-1.125,-5.721 -0.967,-11.221 0.47,-16.509c1.313,-4.808 3.475,-8.708 6.496,-11.7c3.017,-2.987 6.538,-4.879 10.554,-5.675c3.034,-0.666 6.871,-0.487 11.513,0.534c4.641,1.025 9.396,2.954 14.258,5.791c7.321,4.271 13.417,9.242 18.288,14.913c4.87,5.671 8.058,11.358 9.558,17.062c1.5,5.705 1.8,12.338 0.896,19.896l-16.125,-6.583c0.808,-5.967 -0.046,-11.492 -2.567,-16.571c-2.521,-5.083 -6.854,-9.421 -13.004,-13.008c-7.262,-4.242 -12.825,-5.875 -16.683,-4.909c-3.863,0.967 -6.3,3.313 -7.313,7.038c-0.646,2.371 -0.583,4.883 0.188,7.533c0.754,2.717 2.333,5.521 4.733,8.417c1.4,1.6 5.629,5.875 12.7,12.825c10.246,9.987 17.279,17.371 21.104,22.154c3.821,4.783 6.421,10.008 7.796,15.679c1.375,5.671 1.212,11.625 -0.483,17.859c-1.663,6.095 -4.763,10.941 -9.304,14.533c-4.538,3.592 -10.113,5.171 -16.713,4.733c-6.6,-0.437 -13.563,-2.791 -20.883,-7.062c-12.125,-7.079 -20.571,-15.384 -25.338,-24.921c-4.771,-9.533 -6.475,-20.542 -5.116,-33.017Z" style="fill-opacity:0.6;fill-rule:nonzero;"></path></svg>