<svg xmlns="http://www.w3.org/2000/svg" width="34" height="34"><g fill="#3069B3"><path d="M30.15 27.498h-1.508V16.372a1.585 1.585 0 00-1.595-1.571h-6.104a.423.423 0 00-.426.42c0 .23.19.419.426.419h6.104c.41 0 .743.328.743.732v11.126h-8.766a.425.425 0 00-.414.32l-.26 1.048h-4.123l-.26-1.048a.425.425 0 00-.414-.32H4.787V16.372c0-.404.333-.732.743-.732h5.91a.423.423 0 00.426-.42.422.422 0 00-.426-.419H5.53a1.585 1.585 0 00-1.595 1.57v11.127h-1.51a.43.43 0 00-.3.123.416.416 0 00-.125.297v1.06c.002 1.896 1.562 3.431 3.488 3.434h21.601c1.925-.003 3.485-1.538 3.488-3.434v-1.06a.416.416 0 00-.125-.297.43.43 0 00-.301-.123zm-.425 1.48c-.002 1.433-1.181 2.593-2.636 2.595H5.488c-1.455-.002-2.634-1.162-2.636-2.595v-.641h10.367l.26 1.048c.047.187.218.32.414.32h4.79a.425.425 0 00.414-.32l.261-1.048h10.367v.641z"></path><path d="M21.698 11.432c.214.761.965 1.25 1.76 1.144a1.586 1.586 0 001.387-1.563c0-.79-.592-1.458-1.387-1.563a1.602 1.602 0 00-1.76 1.143h-2.857a.43.43 0 00-.301.123.416.416 0 00-.125.297v12.041h-1.713V5.098c.773-.21 1.27-.95 1.162-1.732A1.594 1.594 0 0016.276 2c-.801 0-1.48.584-1.587 1.366a1.578 1.578 0 001.162 1.732v17.956h-1.713V8.234a.416.416 0 00-.125-.297.43.43 0 00-.301-.123h-2.858a1.602 1.602 0 00-1.76-1.144 1.586 1.586 0 00-1.387 1.563c0 .79.593 1.458 1.388 1.564a1.602 1.602 0 001.76-1.144h2.431v14.401H11.44a.423.423 0 00-.426.42c0 .231.191.419.426.419h10.45a.423.423 0 00.427-.42.423.423 0 00-.426-.419h-2.624V11.432h2.431zm1.538-1.158a.75.75 0 01.693.456.73.73 0 01-.162.805.76.76 0 01-.818.16.739.739 0 01-.464-.682.746.746 0 01.75-.739zm-7.71-6.69c0-.408.336-.738.75-.738.415 0 .75.33.75.738a.745.745 0 01-.75.74.745.745 0 01-.75-.74zm-6.21 5.388a.745.745 0 01-.75-.739c0-.408.336-.738.75-.738.415 0 .751.33.751.738a.745.745 0 01-.75.74z"></path></g></svg>