<?xml version="1.0" encoding="UTF-8"?> <svg xmlns="http://www.w3.org/2000/svg" xmlns:xlink="http://www.w3.org/1999/xlink" width="129pt" height="42pt" viewBox="0 0 129 42"><g id="surface1"><path style=" stroke:none;fill-rule:evenodd;fill:rgb(85.098039%,14.117647%,16.078431%);fill-opacity:1;" d="M 21.949219 30.195312 C 20.042969 30.769531 6.777344 33.820312 6.777344 33.820312 C 6.777344 33.820312 1.210938 38.519531 6.425781 41.019531 L 46.761719 29.855469 C 46.761719 29.855469 86.988281 19.6875 85.835938 20.007812 C 84.695312 20.3125 23.617188 29.535156 21.949219 30.195312 Z M 21.949219 30.195312 "></path><path style=" stroke:none;fill-rule:evenodd;fill:rgb(13.72549%,12.156863%,12.54902%);fill-opacity:1;" d="M 17.425781 0.523438 L 22.238281 0.523438 L 22.238281 8.6875 C 23.007812 8.1875 23.699219 7.675781 24.691406 7.371094 C 27.820312 6.425781 32.9375 6.890625 33.980469 9.3125 C 34.382812 10.226562 34.285156 11.75 34.269531 13.0625 L 34.269531 20.363281 L 29.425781 20.363281 C 29.410156 18.019531 29.410156 15.695312 29.394531 13.351562 C 29.394531 12.40625 29.632812 10.898438 29.3125 10.113281 C 28.398438 7.789062 23.265625 9.167969 22.289062 10.515625 L 22.289062 20.3125 C 20.667969 20.328125 19.046875 20.347656 17.425781 20.363281 Z M 17.425781 0.523438 "></path><path style=" stroke:none;fill-rule:evenodd;fill:rgb(13.72549%,12.156863%,12.54902%);fill-opacity:1;" d="M 7.515625 6.9375 C 9.585938 6.90625 11.21875 7.242188 12.761719 7.675781 C 12.777344 8.347656 12.792969 9.023438 12.808594 9.710938 C 11.589844 9.550781 6.9375 8.09375 6.28125 9.824219 C 6.007812 10.5625 7.789062 11.589844 8.253906 11.894531 C 9.9375 13.015625 12.054688 14.027344 13.242188 15.644531 C 13.5625 16.09375 14.125 16.800781 14.011719 17.621094 C 13.464844 21.515625 4.46875 21.035156 1.210938 19.703125 L 1.210938 17.25 L 1.242188 17.25 C 2.75 17.875 4.851562 18.855469 7.082031 18.5 C 7.820312 18.371094 9.183594 18.230469 8.976562 17.25 C 8.78125 16.335938 7.707031 15.839844 7.050781 15.359375 C 5.574219 14.316406 1.660156 12.023438 1.324219 10.175781 C 0.972656 8.285156 3.90625 7.449219 5.335938 7.160156 C 6.054688 7.082031 6.792969 7.015625 7.515625 6.9375 Z M 7.515625 6.9375 "></path><path style=" stroke:none;fill-rule:evenodd;fill:rgb(13.72549%,12.156863%,12.54902%);fill-opacity:1;" d="M 102.113281 20.363281 C 100.511719 20.328125 98.890625 20.296875 97.269531 20.28125 L 97.269531 7.304688 C 98.859375 7.289062 100.429688 7.273438 102.019531 7.273438 C 102.050781 8.398438 102.082031 9.519531 102.113281 10.65625 L 102.113281 10.578125 C 102.417969 10.128906 102.722656 9.679688 103.027344 9.230469 C 104.359375 7.546875 107.246094 6.230469 110.214844 7.339844 L 110.214844 7.59375 C 110.203125 8.535156 110.035156 9.132812 109.84375 9.855469 C 108.417969 9.183594 106.363281 9.488281 105.257812 10.144531 C 101.535156 12.328125 102.097656 14.714844 102.113281 20.363281 Z M 102.113281 20.363281 "></path><path style=" stroke:none;fill-rule:evenodd;fill:rgb(13.72549%,12.156863%,12.54902%);fill-opacity:1;" d="M 94.09375 14.300781 C 94.480469 13.191406 94.09375 11.492188 93.726562 10.625 C 92.746094 8.347656 91.144531 7.546875 88.113281 6.984375 C 87.101562 6.792969 85.066406 6.9375 84.101562 7.113281 C 81.617188 7.609375 79.804688 8.847656 78.953125 10.980469 C 78.679688 11.71875 78.488281 12.871094 78.554688 13.785156 C 78.890625 17.972656 80.957031 19.59375 84.617188 20.394531 C 85.402344 20.570312 89.699219 20.667969 90.773438 20.457031 C 91.769531 20.265625 92.585938 19.878906 93.40625 19.59375 C 93.628906 19.09375 93.515625 18.070312 93.5 17.441406 C 90.359375 19.398438 83.414062 19.253906 83.703125 14.378906 C 87.164062 14.347656 90.628906 14.332031 94.09375 14.300781 Z M 83.347656 12.550781 C 83.316406 10.851562 83.558594 8.941406 86.21875 8.941406 C 89.203125 8.941406 89.105469 12.148438 88.945312 12.503906 C 87.40625 12.503906 85.898438 12.550781 83.347656 12.550781 Z M 83.347656 12.550781 "></path><path style=" stroke:none;fill-rule:evenodd;fill:rgb(13.72549%,12.156863%,12.54902%);fill-opacity:1;" d="M 63.507812 8.140625 L 63.507812 7.273438 C 61.902344 7.257812 60.285156 7.242188 58.664062 7.226562 L 58.664062 26.953125 L 63.476562 26.953125 L 63.476562 19.703125 C 67.804688 21.710938 73.820312 20.328125 75.84375 17.074219 C 76.257812 16.367188 76.4375 15.550781 76.597656 14.554688 C 77.671875 8.042969 68.351562 5.1875 63.507812 8.140625 Z M 70.871094 16.640625 C 69.957031 18.195312 67.695312 19.289062 65.113281 18.5 C 64.582031 18.339844 63.683594 17.84375 63.683594 17.84375 C 63.683594 17.84375 63.667969 11.910156 63.667969 10.082031 C 64.375 9.34375 67.4375 8.027344 69.492188 9.601562 C 71.414062 10.769531 72.296875 14.21875 70.871094 16.640625 Z M 70.871094 16.640625 "></path><path style=" stroke:none;fill-rule:evenodd;fill:rgb(13.72549%,12.156863%,12.54902%);fill-opacity:1;" d="M 54.460938 9.710938 C 53.164062 8.074219 51.03125 7.484375 48.511719 7.050781 C 47.660156 7.015625 45.273438 6.730469 43.378906 7.273438 C 40.957031 7.851562 38.902344 9.007812 38.023438 11.125 C 37.667969 11.972656 37.378906 13.273438 37.589844 14.492188 C 38.214844 18.292969 40.203125 19.511719 43.539062 20.441406 C 45.160156 21.050781 49.441406 20.472656 49.648438 20.425781 C 50.742188 20.183594 51.71875 19.945312 52.570312 19.449219 C 55.648438 17.621094 57.1875 13.160156 54.460938 9.710938 Z M 49.296875 17.410156 C 48.625 18.164062 47.710938 18.5 46.457031 18.628906 C 42.625 19 41.757812 14.621094 42.800781 11.332031 C 43.585938 8.8125 45.847656 9.101562 46.296875 9.039062 C 47.566406 9.117188 48.640625 9.40625 49.25 10.050781 C 50.675781 11.539062 50.851562 15.664062 49.296875 17.410156 Z M 49.296875 17.410156 "></path><path style=" stroke:none;fill-rule:nonzero;fill:rgb(85.098039%,14.117647%,16.078431%);fill-opacity:1;" d="M 113.476562 15.347656 C 113.695312 16.984375 114.355469 18.269531 115.464844 19.199219 C 116.574219 20.125 117.957031 20.589844 119.613281 20.589844 C 120.894531 20.589844 122.011719 20.308594 122.964844 19.738281 C 123.921875 19.171875 124.699219 18.40625 125.304688 17.441406 C 125.90625 16.476562 126.347656 15.414062 126.628906 14.25 C 126.90625 13.089844 127.046875 11.90625 127.046875 10.695312 C 127.046875 9.417969 126.929688 8.203125 126.695312 7.046875 C 126.460938 5.894531 126.070312 4.855469 125.519531 3.925781 C 124.96875 2.996094 124.21875 2.261719 123.261719 1.722656 C 122.308594 1.183594 121.144531 0.910156 119.777344 0.910156 C 118.820312 0.910156 117.933594 1.085938 117.113281 1.4375 C 116.292969 1.789062 115.585938 2.28125 114.992188 2.914062 C 114.398438 3.542969 113.941406 4.28125 113.625 5.128906 C 113.3125 5.976562 113.152344 6.875 113.152344 7.832031 C 113.152344 8.605469 113.273438 9.363281 113.519531 10.101562 C 113.761719 10.839844 114.125 11.488281 114.613281 12.046875 C 115.152344 12.644531 115.8125 13.117188 116.585938 13.46875 C 117.359375 13.820312 118.136719 13.90625 118.964844 13.851562 C 119.898438 13.785156 120.617188 13.445312 121.324219 12.945312 C 121.976562 12.484375 123.078125 10.945312 123.375 9.945312 L 123.289062 11.941406 C 123.253906 12.554688 123.171875 13.183594 123.046875 13.832031 C 122.921875 14.480469 122.722656 15.097656 122.453125 15.683594 C 122.183594 16.269531 121.8125 16.753906 121.34375 17.128906 C 120.875 17.507812 120.316406 17.699219 119.667969 17.699219 C 119.019531 17.699219 118.464844 17.472656 118.003906 17.023438 C 117.546875 16.570312 117.253906 16.011719 117.125 15.347656 Z M 120.0625 11.433594 C 119.125 11.433594 118.230469 10.75 117.734375 10.046875 C 117.238281 9.34375 116.992188 8.507812 116.992188 7.535156 C 116.992188 6.617188 117.257812 5.808594 117.789062 5.113281 C 118.320312 4.421875 119.019531 4.074219 119.882812 4.074219 C 120.804688 4.074219 121.542969 4.425781 122.101562 5.128906 C 122.660156 5.832031 122.9375 6.652344 122.9375 7.589844 C 122.9375 8.578125 122.8125 9.820312 122.28125 10.496094 C 121.75 11.171875 121.035156 11.433594 120.0625 11.433594 Z M 120.0625 11.433594 "></path></g></svg> 