<?xml version="1.0" encoding="UTF-8"?>
<svg width="26px" height="36px" viewBox="0 0 26 36" version="1.1" xmlns="http://www.w3.org/2000/svg" xmlns:xlink="http://www.w3.org/1999/xlink">
    <!-- Generator: Sketch 63.1 (92452) - https://sketch.com -->
    <title>Group 10</title>
    <desc>Created with Sketch.</desc>
    <defs>
        <polygon id="path-1" points="0.000393912985 0.4728 26.046 0.4728 26.046 25.9998 0.000393912985 25.9998"></polygon>
    </defs>
    <g id="Page-1" stroke="none" stroke-width="1" fill="none" fill-rule="evenodd">
        <g id="Home-Page-V1" transform="translate(-570.000000, -4730.000000)">
            <g id="Group-10" transform="translate(570.000000, 4730.000000)">
                <g id="Group-3" transform="translate(0.000000, 9.500000)">
                    <mask id="mask-2" fill="white">
                        <use xlink:href="#path-1"></use>
                    </mask>
                    <g id="Clip-2"></g>
                    <path d="M24.5154,16.3838 C24.3714,17.0178 23.7394,17.4188 23.1044,17.2718 L21.9674,17.0118 C21.6234,16.9338 21.2654,17.1098 21.1174,17.4338 C20.5304,18.7318 19.6724,19.8348 18.5144,20.7548 C18.5034,20.7618 18.4114,20.8268 18.4014,20.8358 C18.1194,21.0518 18.0274,21.4368 18.1824,21.7558 L18.6884,22.8078 C18.8254,23.0918 18.8434,23.4118 18.7394,23.7088 C18.6354,24.0068 18.4214,24.2448 18.1384,24.3818 C17.5494,24.6618 16.8464,24.4148 16.5644,23.8308 L16.0584,22.7808 C15.9034,22.4598 15.5444,22.2908 15.1994,22.3788 C13.7804,22.7368 12.2764,22.7348 10.8484,22.3748 C10.5034,22.2908 10.1444,22.4558 9.9904,22.7778 L9.4824,23.8308 C9.3454,24.1138 9.1064,24.3278 8.8094,24.4328 C8.5114,24.5338 8.1924,24.5188 7.9084,24.3818 C7.6244,24.2448 7.4114,24.0068 7.3074,23.7088 C7.2034,23.4118 7.2214,23.0918 7.3584,22.8078 L7.8654,21.7548 C8.0194,21.4348 7.9274,21.0488 7.6434,20.8328 C7.0384,20.3718 6.5084,19.8588 6.0684,19.3068 C5.6294,18.7558 5.2464,18.1258 4.9314,17.4318 C4.8074,17.1598 4.5374,16.9918 4.2484,16.9918 C4.1934,16.9918 4.1374,16.9978 4.0814,17.0108 L2.9424,17.2718 C2.3064,17.4178 1.6754,17.0168 1.5304,16.3838 C1.4604,16.0768 1.5144,15.7618 1.6824,15.4948 C1.8494,15.2288 2.1104,15.0428 2.4174,14.9728 L3.5574,14.7128 C3.9054,14.6338 4.1494,14.3208 4.1414,13.9648 C4.1084,12.4918 4.4424,11.0258 5.1064,9.7228 C5.2674,9.4048 5.1834,9.0178 4.9054,8.7958 L3.9934,8.0678 C3.7474,7.8718 3.5924,7.5908 3.5574,7.2788 C3.5214,6.9648 3.6104,6.6568 3.8064,6.4108 C4.2124,5.9038 4.9554,5.8208 5.4644,6.2258 L6.3774,6.9528 C6.6544,7.1728 7.0484,7.1688 7.3224,6.9448 C7.3324,6.9358 7.4684,6.8158 7.4774,6.8068 C8.5814,5.9268 9.8484,5.3368 11.2444,5.0538 C11.5934,4.9828 11.8444,4.6748 11.8444,4.3188 L11.8444,3.1528 C11.8444,2.5018 12.3734,1.9728 13.0234,1.9728 C13.6734,1.9728 14.2024,2.5018 14.2024,3.1528 L14.2024,4.3148 C14.2024,4.6708 14.4534,4.9788 14.8034,5.0498 C16.2484,5.3428 17.6064,5.9948 18.7284,6.9358 C19.0004,7.1638 19.3974,7.1678 19.6774,6.9468 L20.5824,6.2258 C21.0924,5.8188 21.8344,5.9038 22.2394,6.4108 C22.6444,6.9188 22.5614,7.6628 22.0534,8.0688 L21.1474,8.7908 C20.8684,9.0128 20.7854,9.4018 20.9474,9.7188 C21.6134,11.0208 21.9474,12.4878 21.9124,13.9648 C21.9044,14.3208 22.1484,14.6338 22.4954,14.7138 L23.6284,14.9728 C23.9354,15.0428 24.1974,15.2288 24.3644,15.4948 C24.5324,15.7618 24.5854,16.0768 24.5154,16.3838 M25.6344,14.6968 C25.2544,14.0908 24.6604,13.6698 23.9624,13.5098 L23.4094,13.3838 C23.3614,12.0748 23.0684,10.7838 22.5474,9.5928 L22.9884,9.2398 C24.1424,8.3198 24.3334,6.6308 23.4124,5.4758 C22.4914,4.3208 20.8014,4.1298 19.6474,5.0518 L19.2064,5.4038 C18.1604,4.6298 16.9664,4.0568 15.7024,3.7208 L15.7024,3.1528 C15.7024,1.6748 14.5003939,0.4728 13.0234,0.4728 C11.5464,0.4728 10.3444,1.6748 10.3444,3.1528 L10.3444,3.7238 C9.0704,4.0598 7.8944,4.6228 6.8414,5.4048 L6.3984,5.0518 C5.2444,4.1338 3.5564,4.3208 2.6344,5.4758 C2.1874,6.0348 1.9864,6.7358 2.0664,7.4458 C2.1464,8.1568 2.4994,8.7948 3.0584,9.2398 L3.5064,9.5988 C2.9874,10.7888 2.6944,12.0768 2.6464,13.3818 L2.0834,13.5098 C1.3864,13.6698 0.7924,14.0908 0.4114,14.6968 C0.0314,15.3028 -0.0906,16.0208 0.0684,16.7178 C0.3954,18.1568 1.8314,19.0578 3.2764,18.7348 L3.8364,18.6068 C4.1454,19.1978 4.50039391,19.7458 4.8964,20.2418 C5.2914,20.7378 5.7474,21.2068 6.2554,21.6398 L6.0064,22.1568 C5.6964,22.8018 5.6554,23.5298 5.8914,24.2038 C6.1274,24.8798 6.6134,25.4228 7.2584,25.7338 C7.6264,25.9098 8.0214,25.9998 8.4174,25.9998 C8.7164,25.9998 9.0154,25.9488 9.3054,25.8478 C9.9804,25.6118 10.5234,25.1258 10.8334,24.4818 L11.0834,23.9628 C12.3654,24.2058 13.6864,24.2068 14.9644,23.9658 L15.2124,24.4818 C15.8544,25.8128 17.4564,26.3748 18.7884,25.7338 C20.1194,25.0928 20.6814,23.4878 20.0404,22.1568 L19.7944,21.6478 C20.7914,20.7928 21.6024,19.7738 22.2134,18.6068 L22.7704,18.7348 C24.2134,19.0598 25.6504,18.1578 25.9774,16.7178 C26.1374,16.0208 26.0154,15.3028 25.6344,14.6968" id="Fill-1" fill="#03C6A8" mask="url(#mask-2)"></path>
                </g>
                <path d="M2.2971,8.6777 L3.5931,7.3817 L3.5931,11.7247 C3.5931,12.1387 3.9291,12.4747 4.3431,12.4747 C4.7571,12.4747 5.0931,12.1387 5.0931,11.7247 L5.0931,7.3817 L6.3891,8.6777 C6.5351,8.8237 6.7271,8.8977 6.9191,8.8977 C7.1111,8.8977 7.3031,8.8237 7.4491,8.6777 C7.7421,8.3847 7.7421,7.9097 7.4491,7.6167 L4.8731,5.0407 C4.8041,4.9717 4.7211,4.9167 4.6301,4.8787 C4.4461,4.8037 4.2401,4.8037 4.0561,4.8787 C3.9641,4.9167 3.8811,4.9717 3.8131,5.0407 L1.2361,7.6167 C0.9431,7.9097 0.9431,8.3847 1.2361,8.6777 C1.5291,8.9707 2.0041,8.9707 2.2971,8.6777" id="Fill-4" fill="#03C6A8"></path>
                <path d="M19.6574,8.6777 L20.9534,7.3817 L20.9534,11.7247 C20.9534,12.1387 21.2894,12.4747 21.7034,12.4747 C22.1174,12.4747 22.4534,12.1387 22.4534,11.7247 L22.4534,7.3817 L23.7494,8.6777 C23.8964,8.8237 24.0884,8.8977 24.2804,8.8977 C24.4714,8.8977 24.6634,8.8237 24.8104,8.6777 C25.1034,8.3847 25.1034,7.9097 24.8104,7.6167 L22.2334,5.0407 C22.1644,4.9717 22.0814,4.9167 21.9904,4.8787 C21.8064,4.8037 21.6004,4.8037 21.4164,4.8787 C21.3244,4.9167 21.2414,4.9717 21.1734,5.0407 L18.5964,7.6167 C18.3034,7.9097 18.3034,8.3847 18.5964,8.6777 C18.8894,8.9707 19.3644,8.9707 19.6574,8.6777" id="Fill-6" fill="#03C6A8"></path>
                <path d="M10.9773,3.8555 L12.2733,2.5595 L12.2733,6.9025 C12.2733,7.3165 12.6093,7.6525 13.0233,7.6525 C13.4373,7.6525 13.7733,7.3165 13.7733,6.9025 L13.7733,2.5595 L15.0693,3.8555 C15.2163,4.0015 15.4083,4.0755 15.6003,4.0755 C15.7913,4.0755 15.9833,4.0015 16.1303,3.8555 C16.4233,3.5625 16.4233,3.0875 16.1303,2.7945 L13.5533,0.2185 C13.4843,0.1495 13.4013,0.0945 13.3103,0.0565 C13.1263,-0.0185 12.9193,-0.0185 12.7363,0.0565 C12.6443,0.0945 12.5623,0.1495 12.4933,0.2185 L9.9163,2.7945 C9.6233,3.0875 9.6233,3.5625 9.9163,3.8555 C10.2093,4.1485 10.6843,4.1485 10.9773,3.8555" id="Fill-8" fill="#03C6A8"></path>
            </g>
        </g>
    </g>
</svg>