<?xml version="1.0" encoding="UTF-8"?>
<svg width="29px" height="29px" viewBox="0 0 29 29" version="1.1" xmlns="http://www.w3.org/2000/svg" xmlns:xlink="http://www.w3.org/1999/xlink">
    <!-- Generator: Sketch 63.1 (92452) - https://sketch.com -->
    <title>Group 3</title>
    <desc>Created with Sketch.</desc>
    <defs>
        <polygon id="path-1" points="0.0004 0 28.294 0 28.294 28.2926 0.0004 28.2926"></polygon>
    </defs>
    <g id="Page-1" stroke="none" stroke-width="1" fill="none" fill-rule="evenodd">
        <g id="Home-Page-V1" transform="translate(-966.000000, -4736.000000)">
            <g id="Group-3" transform="translate(966.000000, 4736.000000)">
                <mask id="mask-2" fill="white">
                    <use xlink:href="#path-1"></use>
                </mask>
                <g id="Clip-2"></g>
                <path d="M19.2314,22.5166 C17.8494,23.4236 16.3114,23.9906 14.7314,24.2376 L14.7314,11.4806 L19.2314,11.4806 L19.2314,22.5166 Z M11.7314,24.3196 L11.7314,16.7306 C11.7314,16.3166 11.3954,15.9806 10.9814,15.9806 L4.9814,15.9806 C4.5674,15.9806 4.2314,16.3166 4.2314,16.7306 L4.2314,20.3566 C2.4684,18.2886 1.5004,15.6946 1.5004,12.9476 C1.5004,9.8886 2.6904,7.0146 4.8534,4.8526 C7.0154,2.6906 9.8904,1.4996 12.9474,1.4996 C16.0054,1.4996 18.8804,2.6906 21.0424,4.8526 C23.2044,7.0146 24.3954,9.8886 24.3954,12.9476 C24.3954,16.0046 23.2044,18.8796 21.0424,21.0416 C20.9424,21.1416 20.8344,21.2276 20.7314,21.3236 L20.7314,10.7306 C20.7314,10.3166 20.3954,9.9806 19.9814,9.9806 L13.9814,9.9806 C13.5674,9.9806 13.2314,10.3166 13.2314,10.7306 L13.2314,24.3746 C12.7304,24.3866 12.2304,24.3716 11.7314,24.3196 L11.7314,24.3196 Z M10.2314,24.0506 C8.6224,23.6596 7.0794,22.9286 5.7314,21.8336 L5.7314,17.4806 L10.2314,17.4806 L10.2314,24.0506 Z M28.0744,27.0126 L22.6074,21.5466 C24.7254,19.1726 25.8954,16.1536 25.8954,12.9476 C25.8954,9.4886 24.5484,6.2376 22.1034,3.7916 C19.6574,1.3466 16.4064,-0.0004 12.9474,-0.0004 C9.4894,-0.0004 6.2374,1.3466 3.7924,3.7916 C1.3464,6.2376 0.0004,9.4886 0.0004,12.9476 C0.0004,16.4056 1.3464,19.6576 3.7924,22.1026 C6.3164,24.6256 9.6324,25.8876 12.9474,25.8876 C16.0284,25.8876 19.1004,24.7846 21.5454,22.6056 L27.0134,28.0736 C27.1604,28.2196 27.3524,28.2926 27.5444,28.2926 C27.7354,28.2926 27.9274,28.2196 28.0744,28.0736 C28.3674,27.7806 28.3674,27.3056 28.0744,27.0126 L28.0744,27.0126 Z" id="Fill-1" fill="#03C6A8" mask="url(#mask-2)"></path>
            </g>
        </g>
    </g>
</svg>