<?xml version="1.0" encoding="UTF-8"?>
<svg width="36px" height="30px" viewBox="0 0 36 30" version="1.1" xmlns="http://www.w3.org/2000/svg" xmlns:xlink="http://www.w3.org/1999/xlink">
    <!-- Generator: Sketch 63.1 (92452) - https://sketch.com -->
    <title>Group 8</title>
    <desc>Created with Sketch.</desc>
    <defs>
        <polygon id="path-1" points="0 0.849 35.4995 0.849 35.4995 22.5758 0 22.5758"></polygon>
    </defs>
    <g id="Page-1" stroke="none" stroke-width="1" fill="none" fill-rule="evenodd">
        <g id="Home-Page-V1" transform="translate(-570.000000, -4376.000000)">
            <g id="Group-8" transform="translate(570.000000, 4375.000000)">
                <g id="Group-3" transform="translate(0.000000, 0.151400)">
                    <mask id="mask-2" fill="white">
                        <use xlink:href="#path-1"></use>
                    </mask>
                    <g id="Clip-2"></g>
                    <path d="M35.4575,15.3418 C35.4495,15.2688 35.4355,15.1968 35.4245,15.1238 C35.4005,14.9608 35.3745,14.7998 35.3385,14.6408 C35.3195,14.5538 35.2955,14.4688 35.2725,14.3838 C35.2345,14.2418 35.1935,14.1028 35.1465,13.9648 C35.1155,13.8738 35.0825,13.7838 35.0475,13.6958 C34.9985,13.5688 34.9435,13.4448 34.8865,13.3208 C34.8435,13.2298 34.8015,13.1378 34.7545,13.0478 C34.6925,12.9308 34.6255,12.8188 34.5575,12.7058 C34.5045,12.6188 34.4555,12.5298 34.3985,12.4458 C34.2955,12.2908 34.1845,12.1448 34.0685,11.9998 C33.9855,11.8978 33.8975,11.7988 33.8085,11.7008 C33.7215,11.6048 33.6345,11.5068 33.5415,11.4158 C33.4655,11.3418 33.3845,11.2718 33.3035,11.1998 C33.2075,11.1138 33.1085,11.0298 33.0065,10.9488 C32.9655,10.9168 32.9295,10.8798 32.8875,10.8488 C32.2655,5.2128 27.4305,0.8488 21.7265,0.8488 C18.0825,0.8488 14.7085,2.5958 12.5945,5.5478 C12.1935,5.4708 11.7925,5.4338 11.3975,5.4338 C11.3925,5.4338 11.3875,5.4308 11.3825,5.4308 C11.2675,5.4308 11.1545,5.4428 11.0405,5.4478 C10.9685,5.4518 10.8955,5.4518 10.8235,5.4588 C10.6565,5.4738 10.4935,5.4968 10.3315,5.5238 C10.3095,5.5278 10.2875,5.5288 10.2665,5.5328 C8.3805,5.8618 6.7745,6.9998 5.8165,8.5788 C5.7955,8.6128 5.7755,8.6458 5.7555,8.6788 C5.6845,8.8008 5.6185,8.9258 5.5555,9.0528 C5.5265,9.1108 5.4985,9.1678 5.4715,9.2268 C5.4165,9.3448 5.3655,9.4638 5.3175,9.5858 C5.3065,9.6138 5.2925,9.6418 5.2825,9.6698 C2.2385,10.2498 -0.0005,12.9178 -0.0005,16.0638 C-0.0005,19.6538 2.9215,22.5758 6.5125,22.5758 L13.7495,22.5758 C14.1645,22.5758 14.4995,22.2398 14.4995,21.8258 C14.4995,21.4118 14.1645,21.0758 13.7495,21.0758 L6.5125,21.0758 C3.7485,21.0758 1.4995,18.8268 1.4995,16.0638 C1.4995,13.8798 2.9065,12.0038 4.9005,11.3278 C4.8815,11.5308 4.8695,11.7358 4.8695,11.9438 C4.8695,12.3578 5.2055,12.6938 5.6195,12.6938 C6.0335,12.6938 6.3695,12.3578 6.3695,11.9438 C6.3695,11.3708 6.4865,10.8298 6.6635,10.3178 C6.7265,10.1368 6.7935,9.9588 6.8755,9.7888 C6.9325,9.6708 6.9975,9.5578 7.0625,9.4458 C7.1635,9.2728 7.2695,9.1038 7.3895,8.9458 C7.4545,8.8598 7.5245,8.7798 7.5945,8.6968 C7.7415,8.5288 7.8955,8.3648 8.0625,8.2168 C8.1225,8.1638 8.1845,8.1148 8.2465,8.0648 C8.4375,7.9108 8.6375,7.7678 8.8495,7.6428 C8.9075,7.6088 8.9665,7.5778 9.0255,7.5468 C9.2455,7.4288 9.4725,7.3248 9.7075,7.2398 C9.7845,7.2128 9.8625,7.1908 9.9405,7.1668 C10.1615,7.0998 10.3865,7.0448 10.6165,7.0078 C10.7305,6.9898 10.8475,6.9828 10.9645,6.9728 C11.5395,6.9228 12.1305,6.9538 12.7245,7.1178 C13.0395,7.2068 13.3755,7.0788 13.5545,6.8038 C15.3615,4.0138 18.4165,2.3488 21.7265,2.3488 C26.3015,2.3488 30.2205,5.5928 31.2065,9.9478 C30.5125,9.6958 29.7675,9.5508 28.9875,9.5508 C28.5735,9.5508 28.2375,9.8868 28.2375,10.3008 C28.2375,10.7148 28.5735,11.0508 28.9875,11.0508 C30.0195,11.0508 30.9785,11.3648 31.7765,11.9028 C31.7935,11.9128 31.8075,11.9268 31.8245,11.9388 C32.0505,12.0938 32.2595,12.2708 32.4575,12.4598 C32.4965,12.4978 32.5375,12.5358 32.5755,12.5758 C32.7765,12.7818 32.9615,13.0028 33.1245,13.2408 C33.1435,13.2678 33.1575,13.2958 33.1745,13.3218 C33.3225,13.5468 33.4505,13.7838 33.5605,14.0308 C33.5795,14.0738 33.6015,14.1158 33.6195,14.1598 C33.7285,14.4228 33.8115,14.6968 33.8745,14.9798 C33.8875,15.0388 33.8975,15.0998 33.9085,15.1598 C33.9625,15.4538 33.9995,15.7538 33.9995,16.0638 C33.9995,18.8268 31.7515,21.0758 28.9875,21.0758 L22.3765,21.0758 C21.9625,21.0758 21.6265,21.4118 21.6265,21.8258 C21.6265,22.2398 21.9625,22.5758 22.3765,22.5758 L28.9875,22.5758 C32.5785,22.5758 35.4995,19.6538 35.4995,16.0638 C35.4995,15.8198 35.4835,15.5788 35.4575,15.3418" id="Fill-1" fill="#03C6A8" mask="url(#mask-2)"></path>
                </g>
                <path d="M20.2285,24.1983 C20.1365,24.1603 20.0395,24.1403 19.9415,24.1403 L16.1645,24.1403 C15.7495,24.1403 15.4145,24.4763 15.4145,24.8903 C15.4145,25.3043 15.7495,25.6403 16.1645,25.6403 L18.1315,25.6403 L14.9005,28.8713 C14.6075,29.1643 14.6075,29.6383 14.9005,29.9313 C15.0465,30.0783 15.2385,30.1513 15.4305,30.1513 C15.6225,30.1513 15.8145,30.0783 15.9605,29.9313 L19.1915,26.7013 L19.1915,28.6693 C19.1915,29.0833 19.5275,29.4193 19.9415,29.4193 C20.3555,29.4193 20.6915,29.0833 20.6915,28.6693 L20.6915,24.8903 C20.6915,24.7933 20.6715,24.6953 20.6335,24.6043 C20.5585,24.4213 20.4115,24.2743 20.2285,24.1983" id="Fill-4" fill="#03C6A8"></path>
                <path d="M21.4722,13.3604 C21.1792,13.0674 20.7042,13.0674 20.4112,13.3604 L17.1802,16.5904 L17.1802,14.6244 C17.1802,14.2104 16.8452,13.8744 16.4302,13.8744 C16.0162,13.8744 15.6802,14.2104 15.6802,14.6244 L15.6802,18.4014 C15.6802,18.4994 15.7012,18.5964 15.7392,18.6884 C15.8142,18.8714 15.9612,19.0174 16.1442,19.0934 C16.2362,19.1314 16.3332,19.1514 16.4302,19.1514 L20.2082,19.1514 C20.6222,19.1514 20.9582,18.8154 20.9582,18.4014 C20.9582,17.9874 20.6222,17.6514 20.2082,17.6514 L18.2412,17.6514 L21.4722,14.4214 C21.7652,14.1284 21.7652,13.6534 21.4722,13.3604" id="Fill-6" fill="#03C6A8"></path>
            </g>
        </g>
    </g>
</svg>