<svg height="480pt" viewBox="0 -15 480 480" width="480pt" xmlns="http://www.w3.org/2000/svg"><path d="m136 48c0 22.089844-17.910156 40-40 40s-40-17.910156-40-40 17.910156-40 40-40 40 17.910156 40 40zm0 0" fill="#9bc9ff"/><path d="m136 104h-80c-26.507812 0-48 21.492188-48 48v32l16.921875 6.152344c7.554687 2.6875 15.261719 4.933594 23.078125 6.726562 31.5625 7.496094 64.4375 7.496094 96 0 7.816406-1.792968 15.523438-4.039062 23.078125-6.726562l16.921875-6.152344v-32c0-26.507812-21.492188-48-48-48zm0 0" fill="#9bc9ff"/><path d="m424 48c0 22.089844-17.910156 40-40 40s-40-17.910156-40-40 17.910156-40 40-40 40 17.910156 40 40zm0 0" fill="#9bc9ff"/><path d="m424 104h-80c-26.507812 0-48 21.492188-48 48v32l16.921875 6.152344c45.988281 16.273437 96.167969 16.273437 142.15625 0l16.921875-6.152344v-32c0-26.507812-21.492188-48-48-48zm0 0" fill="#9bc9ff"/><g fill="#1e81ce"><path d="m240 336c-26.507812 0-48-21.492188-48-48s21.492188-48 48-48 48 21.492188 48 48c-.027344 26.5-21.5 47.972656-48 48zm0-80c-17.671875 0-32 14.328125-32 32s14.328125 32 32 32 32-14.328125 32-32-14.328125-32-32-32zm0 0"/><path d="m96 96c-26.507812 0-48-21.492188-48-48s21.492188-48 48-48 48 21.492188 48 48c-.027344 26.5-21.5 47.972656-48 48zm0-80c-17.671875 0-32 14.328125-32 32s14.328125 32 32 32 32-14.328125 32-32-14.328125-32-32-32zm0 0"/><path d="m384 96c-26.507812 0-48-21.492188-48-48s21.492188-48 48-48 48 21.492188 48 48c-.027344 26.5-21.5 47.972656-48 48zm0-80c-17.671875 0-32 14.328125-32 32s14.328125 32 32 32 32-14.328125 32-32-14.328125-32-32-32zm0 0"/><path d="m123.695312 380.472656c-52.53125-35.234375-86.0625-92.5625-91.023437-155.625l15.953125-1.28125c4.582031 58.207032 35.53125 111.117188 84.023438 143.632813zm0 0"/><path d="m352.625 382.894531-8.671875-13.4375c50.007813-32.410156 82.253906-86.085937 87.382813-145.457031l15.953124 1.320312c-5.558593 64.316407-40.492187 122.464844-94.664062 157.574219zm0 0"/><path d="m163.273438 31.945312-6.402344-14.664062c52.277344-22.714844 111.574218-23.050781 164.105468-.929688l-6.234374 14.738282c-48.484376-20.414063-103.210938-20.101563-151.460938.855468zm0 0"/><path d="m136 96h-80c-30.914062.035156-55.9648438 25.085938-56 56v37.601562l22.175781 8.070313c47.695313 17.3125 99.953125 17.3125 147.648438 0l22.175781-8.070313v-37.601562c-.035156-30.914062-25.085938-55.964844-56-56zm40 82.398438-11.648438 4.234374c-4.070312 1.480469-8.214843 2.679688-12.351562 3.886719v-50.519531h-16v54.457031c-26.394531 5.378907-53.605469 5.378907-80 0v-54.457031h-16v50.519531c-4.136719-1.207031-8.28125-2.398437-12.351562-3.886719l-11.648438-4.234374v-26.398438c.027344-22.082031 17.917969-39.972656 40-40h80c22.082031.027344 39.972656 17.917969 40 40zm0 0"/><path d="m424 96h-80c-30.914062.035156-55.964844 25.085938-56 56v37.601562l22.175781 8.070313c47.695313 17.3125 99.953125 17.3125 147.648438 0l22.175781-8.070313v-37.601562c-.035156-30.914062-25.085938-55.964844-56-56zm40 82.398438-11.648438 4.234374c-4.070312 1.480469-8.214843 2.679688-12.351562 3.886719v-50.519531h-16v54.457031c-26.394531 5.378907-53.605469 5.378907-80 0v-54.457031h-16v50.519531c-4.136719-1.207031-8.28125-2.398437-12.351562-3.886719l-11.648438-4.234374v-26.398438c.027344-22.082031 17.917969-39.972656 40-40h80c22.082031.027344 39.972656 17.917969 40 40zm0 0"/><path d="m280 336h-80c-30.914062.035156-55.964844 25.085938-56 56v37.601562l22.175781 8.070313c47.695313 17.3125 99.953125 17.3125 147.648438 0l22.175781-8.070313v-37.601562c-.035156-30.914062-25.085938-55.964844-56-56zm40 82.398438-11.648438 4.234374c-4.070312 1.480469-8.214843 2.679688-12.351562 3.886719v-50.519531h-16v54.457031c-26.394531 5.378907-53.605469 5.378907-80 0v-54.457031h-16v50.519531c-4.136719-1.207031-8.28125-2.398437-12.351562-3.886719l-11.648438-4.234374v-26.398438c.027344-22.082031 17.917969-39.972656 40-40h80c22.082031.027344 39.972656 17.917969 40 40zm0 0"/></g></svg>