<?xml version="1.0" encoding="UTF-8"?>
<svg width="37px" height="27px" viewBox="0 0 37 27" version="1.1" xmlns="http://www.w3.org/2000/svg" xmlns:xlink="http://www.w3.org/1999/xlink">
    <!-- Generator: Sketch 63.1 (92452) - https://sketch.com -->
    <title>Group 6</title>
    <desc>Created with Sketch.</desc>
    <defs>
        <polygon id="path-1" points="0.5932 0.8701 34.5 0.8701 34.5 21.4681 0.5932 21.4681"></polygon>
    </defs>
    <g id="Page-1" stroke="none" stroke-width="1" fill="none" fill-rule="evenodd">
        <g id="Home-Page-V1" transform="translate(-966.000000, -4376.000000)">
            <g id="Group-6" transform="translate(966.000000, 4375.000000)">
                <g id="Group-3" transform="translate(2.000000, 0.129900)">
                    <mask id="mask-2" fill="white">
                        <use xlink:href="#path-1"></use>
                    </mask>
                    <g id="Clip-2"></g>
                    <path d="M25.9722,0.8701 L1.3432,0.8701 C0.9292,0.8701 0.5932,1.2061 0.5932,1.6201 C0.5932,2.0341 0.9292,2.3701 1.3432,2.3701 L25.9722,2.3701 C29.8472,2.3701 33.0002,5.5221 33.0002,9.3971 C33.0002,13.2721 29.8472,16.4261 25.9722,16.4261 L18.1972,16.4261 L20.0552,14.5681 C20.3472,14.2751 20.3472,13.8011 20.0552,13.5081 C19.7622,13.2151 19.2872,13.2151 18.9942,13.5081 L15.6542,16.8481 C15.3612,17.1411 15.3612,17.6151 15.6542,17.9081 L18.9942,21.2481 C19.1402,21.3941 19.3322,21.4681 19.5242,21.4681 C19.7162,21.4681 19.9082,21.3941 20.0552,21.2481 C20.3472,20.9551 20.3472,20.4801 20.0552,20.1871 L17.7932,17.9261 L25.9722,17.9261 C30.6742,17.9261 34.5002,14.0991 34.5002,9.3971 C34.5002,4.6951 30.6742,0.8701 25.9722,0.8701" id="Fill-1" fill="#03C6A8" mask="url(#mask-2)"></path>
                </g>
                <path d="M33.1572,25.6299 L8.5282,25.6299 C4.6532,25.6299 1.5002,22.4769 1.5002,18.6019 C1.5002,14.7269 4.6532,11.5739 8.5282,11.5739 L16.3022,11.5739 L14.4452,13.4309 C14.1522,13.7239 14.1522,14.1979 14.4452,14.4909 C14.5922,14.6379 14.7832,14.7109 14.9752,14.7109 C15.1672,14.7109 15.3592,14.6379 15.5062,14.4909 L18.8452,11.1519 C18.9862,11.0119 19.0652,10.8209 19.0652,10.6219 C19.0652,10.4229 18.9862,10.2329 18.8452,10.0919 L15.5062,6.7519 C15.2132,6.4589 14.7382,6.4589 14.4452,6.7519 C14.1522,7.0449 14.1522,7.5199 14.4452,7.8129 L16.7072,10.0739 L8.5282,10.0739 C3.8252,10.0739 0.0002,13.8999 0.0002,18.6019 C0.0002,23.3039 3.8252,27.1299 8.5282,27.1299 L33.1572,27.1299 C33.5712,27.1299 33.9072,26.7939 33.9072,26.3799 C33.9072,25.9659 33.5712,25.6299 33.1572,25.6299" id="Fill-4" fill="#03C6A8"></path>
            </g>
        </g>
    </g>
</svg>