<?xml version="1.0" encoding="UTF-8"?>
<svg width="36px" height="30px" viewBox="0 0 36 30" version="1.1" xmlns="http://www.w3.org/2000/svg" xmlns:xlink="http://www.w3.org/1999/xlink">
    <!-- Generator: Sketch 63.1 (92452) - https://sketch.com -->
    <title>Group 7</title>
    <desc>Created with Sketch.</desc>
    <defs>
        <polygon id="path-1" points="0.0002 0.8404 32.6362 0.8404 32.6362 24 0.0002 24"></polygon>
        <polygon id="path-3" points="0.003 0.176 11.5 0.176 11.5 20.8369 0.003 20.8369"></polygon>
    </defs>
    <g id="Page-1" stroke="none" stroke-width="1" fill="none" fill-rule="evenodd">
        <g id="Home-Page-V1" transform="translate(-174.000000, -4731.000000)">
            <g id="Group-7" transform="translate(174.000000, 4730.000000)">
                <g id="Group-3" transform="translate(0.000000, 6.824200)">
                    <mask id="mask-2" fill="white">
                        <use xlink:href="#path-1"></use>
                    </mask>
                    <g id="Clip-2"></g>
                    <path d="M31.8862,15.6104 C31.4722,15.6104 31.1362,15.9464 31.1362,16.3604 L31.1362,21.5844 C31.1362,22.0894 30.7252,22.5004 30.2202,22.5004 L2.4162,22.5004 C1.9112,22.5004 1.5002,22.0894 1.5002,21.5844 L1.5002,3.2564 C1.5002,2.7524 1.9112,2.3404 2.4162,2.3404 L22.3982,2.3404 C22.8122,2.3404 23.1482,2.0054 23.1482,1.5904 C23.1482,1.1764 22.8122,0.8404 22.3982,0.8404 L2.4162,0.8404 C1.0842,0.8404 0.0002,1.9244 0.0002,3.2564 L0.0002,21.5844 C0.0002,22.9164 1.0842,24.0004 2.4162,24.0004 L30.2202,24.0004 C31.5522,24.0004 32.6362,22.9164 32.6362,21.5844 L32.6362,16.3604 C32.6362,15.9464 32.3002,15.6104 31.8862,15.6104" id="Fill-1" fill="#03C6A8" mask="url(#mask-2)"></path>
                </g>
                <g id="Group-6" transform="translate(24.000000, 0.824200)">
                    <mask id="mask-4" fill="white">
                        <use xlink:href="#path-3"></use>
                    </mask>
                    <g id="Clip-5"></g>
                    <path d="M10,18.5869 C10,18.9999 9.664,19.3369 9.25,19.3369 L2.253,19.3369 C1.839,19.3369 1.503,18.9999 1.503,18.5869 L1.503,2.4259 C1.503,2.0129 1.839,1.6759 2.253,1.6759 L9.25,1.6759 C9.664,1.6759 10,2.0129 10,2.4259 L10,18.5869 Z M9.25,0.1759 L2.253,0.1759 C1.012,0.1759 0.003,1.1859 0.003,2.4259 L0.003,18.5869 C0.003,19.8269 1.012,20.8369 2.253,20.8369 L9.25,20.8369 C10.491,20.8369 11.5,19.8269 11.5,18.5869 L11.5,2.4259 C11.5,1.1859 10.491,0.1759 9.25,0.1759 L9.25,0.1759 Z" id="Fill-4" fill="#03C6A8" mask="url(#mask-4)"></path>
                </g>
            </g>
        </g>
    </g>
</svg>