<?xml version="1.0" encoding="UTF-8"?>
<svg width="29px" height="36px" viewBox="0 0 29 36" version="1.1" xmlns="http://www.w3.org/2000/svg" xmlns:xlink="http://www.w3.org/1999/xlink">
    <!-- Generator: Sketch 63.1 (92452) - https://sketch.com -->
    <title>Group 8</title>
    <desc>Created with Sketch.</desc>
    <defs>
        <polygon id="path-1" points="0.000172477328 0.5 24.4647 0.5 24.4647 24.1597 0.000172477328 24.1597"></polygon>
    </defs>
    <g id="Page-1" stroke="none" stroke-width="1" fill="none" fill-rule="evenodd">
        <g id="Home-Page-V1" transform="translate(-174.000000, -4372.000000)">
            <g id="Group-8" transform="translate(174.000000, 4371.000000)">
                <path d="M27.3589,13.291 C27.1939,12.911 26.7539,12.738 26.3719,12.901 C25.9919,13.066 25.8179,13.509 25.9829,13.889 C28.0589,18.672 27.0219,24.141 23.3419,27.821 C19.7369,31.426 14.3519,32.494 9.6229,30.546 C9.3439,30.431 9.0219,30.494 8.8069,30.709 L5.5759,33.939 L5.5759,31.973 C5.5759,31.559 5.2399,31.223 4.8259,31.223 C4.4119,31.223 4.0759,31.559 4.0759,31.973 L4.0759,35.75 C4.0759,35.848 4.0959,35.945 4.1339,36.037 C4.2099,36.22 4.3569,36.366 4.5399,36.442 C4.6309,36.48 4.7289,36.5 4.8259,36.5 L8.6039,36.5 C9.0179,36.5 9.3539,36.164 9.3539,35.75 C9.3539,35.336 9.0179,35 8.6039,35 L6.6369,35 L9.5209,32.116 C14.6939,34.042 20.4859,32.797 24.4019,28.882 C28.5209,24.763 29.6819,18.644 27.3589,13.291" id="Fill-1" fill="#03C6A8"></path>
                <g id="Group-5" transform="translate(0.000000, 0.500000)">
                    <mask id="mask-2" fill="white">
                        <use xlink:href="#path-1"></use>
                    </mask>
                    <g id="Clip-4"></g>
                    <path d="M5.1987,9.1787 C8.8027,5.5737 14.1867,4.5037 18.9187,6.4537 C19.1967,6.5697 19.5197,6.5057 19.7347,6.2907 L22.9647,3.0607 L22.9647,5.0277 C22.9647,5.4417 23.3007,5.7777 23.7147,5.7777 C24.1287,5.7777 24.4647,5.4417 24.4647,5.0277 L24.4647,1.2497 C24.4647,1.1527 24.4447,1.0547 24.4067,0.9627 C24.3307,0.7807 24.1847,0.6337 24.0017,0.5577 C23.9097,0.5197 23.8127,0.4997 23.7147,0.4997 L19.9367,0.4997 C19.5227,0.4997 19.1867,0.8357 19.1867,1.2497 C19.1867,1.6637 19.5227,1.9997 19.9367,1.9997 L21.9047,1.9997 L19.0207,4.8837 C13.8447,2.9567 8.0527,4.2027 4.1377,8.1177 C0.0197,12.2367 -1.1403,18.3567 1.1817,23.7087 C1.3037,23.9917 1.5797,24.1597 1.8697,24.1597 C1.9697,24.1597 2.0707,24.1407 2.1677,24.0987 C2.5487,23.9337 2.7227,23.4917 2.5577,23.1117 C0.4817,18.3277 1.5187,12.8587 5.1987,9.1787" id="Fill-3" fill="#03C6A8" mask="url(#mask-2)"></path>
                </g>
                <path d="M13.1089,14.9668 L15.4319,14.9668 C16.1639,14.9668 16.7579,15.5618 16.7579,16.2928 C16.7579,16.7068 17.0939,17.0428 17.5079,17.0428 C17.9219,17.0428 18.2579,16.7068 18.2579,16.2928 C18.2579,14.7348 16.9909,13.4668 15.4319,13.4668 L15.0209,13.4668 L15.0209,11.4638 C15.0209,11.0498 14.6849,10.7138 14.2709,10.7138 C13.8569,10.7138 13.5209,11.0498 13.5209,11.4638 L13.5209,13.4668 L13.1089,13.4668 C11.5499,13.4668 10.2819,14.7348 10.2819,16.2928 L10.2819,16.6738 C10.2819,18.2328 11.5499,19.4998 13.1089,19.4998 L15.4319,19.4998 C16.1639,19.4998 16.7579,20.0948 16.7579,20.8258 L16.7579,21.2068 C16.7579,21.9388 16.1639,22.5328 15.4319,22.5328 L13.1089,22.5328 C12.3779,22.5328 11.7819,21.9388 11.7819,21.2068 C11.7819,20.7928 11.4459,20.4568 11.0319,20.4568 C10.6179,20.4568 10.2819,20.7928 10.2819,21.2068 C10.2819,22.7658 11.5499,24.0328 13.1089,24.0328 L13.5209,24.0328 L13.5209,26.0358 C13.5209,26.4498 13.8569,26.7858 14.2709,26.7858 C14.6849,26.7858 15.0209,26.4498 15.0209,26.0358 L15.0209,24.0328 L15.4319,24.0328 C16.9909,24.0328 18.2579,22.7658 18.2579,21.2068 L18.2579,20.8258 C18.2579,19.2678 16.9909,17.9998 15.4319,17.9998 L13.1089,17.9998 C12.3779,17.9998 11.7819,17.4048 11.7819,16.6738 L11.7819,16.2928 C11.7819,15.5618 12.3779,14.9668 13.1089,14.9668" id="Fill-6" fill="#03C6A8"></path>
            </g>
        </g>
    </g>
</svg>